# Blender 4.4.1
# www.blender.org
mtllib Leg_L.mtl
o LegL
v 0.065961 -0.255126 0.069384
v 0.042918 0.009698 0.046341
v -0.065331 -0.255126 0.069384
v -0.042288 0.009698 0.046341
v 0.065961 -0.255126 -0.061908
v 0.042918 0.009698 -0.038865
v -0.065331 -0.255126 -0.061908
v -0.042288 0.009698 -0.038865
vn -0.0000 0.0867 0.9962
vn -0.9962 0.0867 -0.0000
vn -0.0000 0.0867 -0.9962
vn 0.9962 0.0867 -0.0000
vn -0.0000 -1.0000 -0.0000
vn -0.0000 1.0000 -0.0000
vt 0.457644 0.361427
vt 0.650585 0.283269
vt 0.650410 0.378493
vt 0.457757 0.299629
vt 0.634371 0.189436
vt 0.447235 0.238733
vt 0.602252 0.099792
vt 0.395846 0.126834
vt 0.555187 0.017013
vt 0.383480 0.281614
vt 0.288256 0.376838
vt 0.288256 0.281614
vt 0.395846 0.361314
vt 0.395959 0.299515
vt 0.426390 0.180556
vt 0.383480 0.376838
s 1
usemtl マテリアル
f 2/1/1 3/2/1 1/3/1
f 4/4/2 7/5/2 3/2/2
f 8/6/3 5/7/3 7/5/3
f 5/7/4 2/8/4 1/9/4
f 7/10/5 1/11/5 3/12/5
f 4/4/6 6/13/6 8/14/6
f 2/1/1 4/4/1 3/2/1
f 4/4/2 8/6/2 7/5/2
f 8/6/3 6/15/3 5/7/3
f 5/7/4 6/15/4 2/8/4
f 7/10/5 5/16/5 1/11/5
f 4/4/6 2/1/6 6/13/6
