# Blender 4.4.1
# www.blender.org
mtllib Arm_R.mtl
o ArmR
v -0.010086 0.030003 0.026375
v -0.043998 0.000992 0.041238
v 0.029123 0.007366 0.026375
v 0.020953 -0.036508 0.041238
v -0.010086 0.030003 -0.018899
v -0.043998 0.000992 -0.033761
v 0.029123 0.007366 -0.018899
v 0.020953 -0.036508 -0.033761
v -0.244607 -0.315126 0.056911
v -0.232219 -0.277241 0.065126
v -0.125892 -0.338628 0.065126
v -0.152508 -0.368300 0.056911
v -0.232219 -0.277241 -0.057649
v -0.244607 -0.315126 -0.049435
v -0.125892 -0.338628 -0.057649
v -0.152508 -0.368300 -0.049435
vn -0.5000 -0.8660 -0.0000
vn -0.9439 0.3303 -0.0000
vn -0.8335 0.5525 -0.0000
vn 0.7580 -0.6523 -0.0000
vn 0.8952 -0.4456 -0.0000
vn -0.0930 -0.1610 0.9826
vn 0.0308 0.0534 0.9981
vn -0.1665 -0.2884 -0.9429
vn -0.0930 -0.1610 -0.9826
vn -0.9831 0.1831 -0.0000
vn -0.1665 -0.2884 0.9429
vn 0.6501 -0.7599 -0.0000
vn 0.0308 0.0534 -0.9981
vn 0.1030 0.1785 -0.9785
vn -0.7444 0.6677 -0.0000
vn 0.1030 0.1785 0.9785
vn 0.9505 -0.3108 -0.0000
vn 0.5000 0.8660 -0.0000
vt 0.332168 0.690726
vt 0.360793 0.720286
vt 0.331700 0.719819
vt 0.323079 0.661896
vt 0.232921 0.455707
vt 0.311198 0.445798
vt 0.228782 0.680708
vt 0.084467 0.508036
vt 0.156833 0.476593
vt 0.275262 0.667949
vt 0.361260 0.691194
vt 0.371271 0.662671
vt 0.303645 0.680715
vt 0.321689 0.748342
vt 0.389316 0.730297
vt 0.390090 0.447066
vt 0.316888 0.420270
vt 0.302744 0.421048
vt 0.234941 0.429630
vt 0.221049 0.432402
vt 0.155143 0.450493
vt 0.141783 0.455202
vt 0.079100 0.482438
vt 0.092833 0.688224
vt 0.161178 0.756568
vt 0.092833 0.756568
vt 0.184576 0.699915
vt 0.302870 0.728908
vt 0.369882 0.749116
vt 0.390090 0.682105
vt 0.385224 0.421368
vt 0.161178 0.688224
s 1
usemtl マテリアル
f 3/1/1 5/2/1 7/3/1
f 4/4/2 15/5/3 11/6/3
f 6/7/4 10/8/5 13/9/5
f 8/10/6 13/9/7 15/5/7
f 1/11/8 4/4/9 2/12/9
f 7/3/10 4/13/2 3/1/10
f 5/2/11 8/14/6 7/3/11
f 1/11/12 6/15/4 5/2/12
f 10/16/13 4/4/9 11/6/13
f 12/17/14 10/16/13 11/6/13
f 12/18/15 15/5/3 16/19/15
f 16/20/16 13/9/7 14/21/16
f 14/22/17 10/8/5 9/23/17
f 16/24/18 9/25/18 12/26/18
f 3/1/1 1/11/1 5/2/1
f 4/4/2 8/10/2 15/5/3
f 6/7/4 2/27/4 10/8/5
f 8/10/6 6/7/6 13/9/7
f 1/11/8 3/1/8 4/4/9
f 7/3/10 8/28/2 4/13/2
f 5/2/11 6/29/6 8/14/6
f 1/11/12 2/30/4 6/15/4
f 10/16/13 2/12/9 4/4/9
f 12/17/14 9/31/14 10/16/13
f 12/18/15 11/6/3 15/5/3
f 16/20/16 15/5/7 13/9/7
f 14/22/17 13/9/5 10/8/5
f 16/24/18 14/32/18 9/25/18
