# Blender 5.0.1
# www.blender.org
mtllib NormalBlock.mtl
o 立方体
v -1.000000 -1.000000 1.000000
v -1.000000 1.000000 1.000000
v -1.000000 -1.000000 -1.000000
v -1.000000 1.000000 -1.000000
v 1.000000 -1.000000 1.000000
v 1.000000 1.000000 1.000000
v 1.000000 -1.000000 -1.000000
v 1.000000 1.000000 -1.000000
vn -1.0000 -0.0000 -0.0000
vn -0.0000 -0.0000 -1.0000
vn 1.0000 -0.0000 -0.0000
vn -0.0000 -0.0000 1.0000
vn -0.0000 -1.0000 -0.0000
vn -0.0000 1.0000 -0.0000
vt 0.982143 0.351190
vt 0.982143 0.648809
vt 0.684524 0.648809
vt 0.684524 0.351190
vt 0.351190 0.017857
vt 0.648810 0.017857
vt 0.648810 0.315476
vt 0.351191 0.315476
vt 0.315476 0.351191
vt 0.315476 0.648810
vt 0.017857 0.648810
vt 0.017857 0.351191
vt 0.351191 0.648810
vt 0.351190 0.351191
vt 0.648809 0.351191
vt 0.648810 0.648810
vt 0.315476 0.315476
vt 0.017857 0.315476
vt 0.017857 0.017857
vt 0.315476 0.017857
vt 0.982143 0.017857
vt 0.982143 0.315476
vt 0.684524 0.315476
vt 0.684524 0.017857
s 0
usemtl マテリアル
f 1/1/1 2/2/1 4/3/1 3/4/1
f 3/5/2 4/6/2 8/7/2 7/8/2
f 7/9/3 8/10/3 6/11/3 5/12/3
f 5/13/4 6/14/4 2/15/4 1/16/4
f 3/17/5 7/18/5 5/19/5 1/20/5
f 8/21/6 4/22/6 2/23/6 6/24/6
