# Blender 5.0.1
# www.blender.org
mtllib slopeBlock.mtl
o Cube
v -1.000000 -1.000000 -1.000000
v -1.000000 -1.000000 1.000000
v 0.995786 -1.000000 -1.000000
v 0.995786 -1.000000 1.000000
v -1.000000 0.995786 1.000000
v -1.000000 0.995786 -1.000000
vn -0.0000 -0.0000 1.0000
vn -0.0000 -1.0000 -0.0000
vn -0.0000 -0.0000 -1.0000
vn -1.0000 -0.0000 -0.0000
vn 0.7071 0.7071 -0.0000
vt 0.375000 0.250000
vt 0.375000 0.000527
vt 0.624473 0.250000
vt 0.375000 0.500000
vt 0.125000 0.749473
vt 0.125000 0.500000
vt 0.624473 0.500000
vt 0.375000 0.749473
vt 0.000000 0.000000
s 0
usemtl Material
f 2/1/1 4/2/1 5/3/1
f 1/4/2 4/5/2 2/6/2
f 1/4/3 6/7/3 3/8/3
f 2/1/4 6/7/4 1/4/4
f 5/9/5 3/9/5 6/9/5
f 1/4/2 3/8/2 4/5/2
f 2/1/4 5/3/4 6/7/4
f 5/9/5 4/9/5 3/9/5
