# Blender 4.5.4 LTS
# www.blender.org
mtllib wall.mtl
o 平面.001
v 50.000000 100.000000 49.999996
v 50.000000 0.000000 50.000000
v -50.000000 100.000000 50.000000
v -50.000000 0.000000 50.000004
v 49.999992 100.000000 -49.999992
v 49.999996 0.000004 -50.000000
v 50.000000 100.000000 50.000008
v 50.000008 0.000008 50.000004
v -50.000000 100.000000 -50.000000
v -50.000000 0.000004 -50.000000
v 50.000004 100.000000 -50.000000
v 50.000004 0.000004 -50.000000
v -50.079994 100.000000 50.000004
v -50.080002 0.000008 50.000000
v -50.079994 100.000000 -50.000000
v -50.079998 0.000004 -49.999992
vn -0.0000 -0.0000 -1.0000
vn -1.0000 -0.0000 -0.0000
vn -0.0000 -0.0000 1.0000
vn 1.0000 -0.0000 -0.0000
vt 0.000200 0.000200
vt 0.499800 0.499800
vt 0.000200 0.499800
vt 0.000200 0.999800
vt 0.499800 0.500200
vt 0.499800 0.999800
vt 0.500200 0.499800
vt 0.999800 0.000200
vt 0.999800 0.499800
vt 0.999800 0.999800
vt 0.500200 0.500200
vt 0.999800 0.500200
vt 0.499800 0.000200
vt 0.000200 0.500200
vt 0.500200 0.000200
vt 0.500200 0.999800
s 0
usemtl マテリアル.007
f 2/1/1 3/2/1 1/3/1
f 5/4/2 8/5/2 7/6/2
f 10/7/3 11/8/3 9/9/3
f 13/10/4 16/11/4 15/12/4
f 2/1/1 4/13/1 3/2/1
f 5/4/2 6/14/2 8/5/2
f 10/7/3 12/15/3 11/8/3
f 13/10/4 14/16/4 16/11/4
