# Blender 4.4.1
# www.blender.org
mtllib Chocolate.mtl
o Cube
v 0.458861 0.050000 -0.458861
v 0.500000 -0.050000 -0.500000
v 0.458861 0.050000 0.458861
v 0.500000 -0.050000 0.500000
v -0.458861 0.050000 -0.458861
v -0.500000 -0.050000 -0.500000
v -0.458861 0.050000 0.458861
v -0.500000 -0.050000 0.500000
v 0.500000 0.050000 0.500000
v -0.500000 0.050000 0.500000
v 0.500000 0.050000 -0.500000
v -0.500000 0.050000 -0.500000
v 0.349244 0.167177 0.349244
v -0.349244 0.167177 0.349244
v 0.349244 0.167177 -0.349244
v -0.349244 0.167177 -0.349244
vn -0.0000 -0.0000 1.0000
vn -1.0000 -0.0000 -0.0000
vn -0.0000 -1.0000 -0.0000
vn 1.0000 -0.0000 -0.0000
vn -0.0000 -0.0000 -1.0000
vn -0.0000 1.0000 -0.0000
vn -0.0000 0.6832 0.7303
vn 0.7303 0.6832 -0.0000
vn -0.7303 0.6832 -0.0000
vn -0.0000 0.6832 -0.7303
vt 0.500000 0.749957
vt 0.250043 0.999913
vt 0.250043 0.749957
vt 0.500000 0.000087
vt 0.250043 0.250043
vt 0.250043 0.000087
vt 0.250043 0.500000
vt 0.000087 0.749957
vt 0.000087 0.500000
vt 0.500000 0.500000
vt 0.500000 0.250043
vt 0.739674 0.739674
vt 0.510283 0.739674
vt 0.510283 0.510283
vt 0.739674 0.510283
vt 0.749957 0.749957
vt 0.749957 0.500000
vt 0.712274 0.537682
vt 0.537682 0.712274
vt 0.537682 0.537682
vt 0.712274 0.712274
vt 0.500000 0.999913
s 0
usemtl Material
f 9/1/1 8/2/1 4/3/1
f 10/4/2 6/5/2 8/6/2
f 2/7/3 8/8/3 6/9/3
f 11/10/4 4/3/4 2/7/4
f 12/11/5 2/7/5 6/5/5
f 7/12/6 9/1/6 3/13/6
f 3/13/6 11/10/6 1/14/6
f 5/15/6 10/16/6 7/12/6
f 1/14/6 12/17/6 5/15/6
f 16/18/6 13/19/6 15/20/6
f 14/21/7 3/13/7 13/19/7
f 13/19/8 1/14/8 15/20/8
f 16/18/9 7/12/9 14/21/9
f 15/20/10 5/15/10 16/18/10
f 9/1/1 10/22/1 8/2/1
f 10/4/2 12/11/2 6/5/2
f 2/7/3 4/3/3 8/8/3
f 11/10/4 9/1/4 4/3/4
f 12/11/5 11/10/5 2/7/5
f 7/12/6 10/16/6 9/1/6
f 3/13/6 9/1/6 11/10/6
f 5/15/6 12/17/6 10/16/6
f 1/14/6 11/10/6 12/17/6
f 16/18/6 14/21/6 13/19/6
f 14/21/7 7/12/7 3/13/7
f 13/19/8 3/13/8 1/14/8
f 16/18/9 5/15/9 7/12/9
f 15/20/10 1/14/10 5/15/10
