# Blender 4.4.1
# www.blender.org
mtllib ArmL_01.mtl
o ArmL01
v -0.016341 0.000000 -0.093611
v -0.016341 -0.050793 -0.081069
v -0.016341 -0.087976 -0.046805
v -0.016341 -0.101586 -0.000000
v -0.016341 -0.087976 0.046805
v -0.016341 -0.050793 0.081069
v -0.016341 0.000000 0.093611
v -0.016341 0.050793 0.081069
v -0.016341 0.087976 0.046805
v -0.016341 0.101586 -0.000000
v -0.016341 0.087976 -0.046805
v -0.016341 0.050793 -0.081069
v 0.482747 0.000000 -0.092556
v 0.482747 -0.051756 -0.080156
v 0.482747 -0.089643 -0.046278
v 0.482747 -0.103511 -0.000000
v 0.482747 -0.089643 0.046278
v 0.482747 -0.051756 0.080156
v 0.482747 0.000000 0.092556
v 0.482747 0.051756 0.080156
v 0.482747 0.089643 0.046278
v 0.482747 0.103511 -0.000000
v 0.482747 0.089643 -0.046278
v 0.482747 0.051756 -0.080156
v 0.229883 -0.099458 -0.156844
v 0.229883 -0.172266 -0.090554
v 0.229883 -0.198915 -0.000000
v 0.229883 -0.172266 0.090554
v 0.229883 -0.099458 0.156844
v 0.229883 0.000000 0.181107
v 0.229883 0.099458 0.156844
v 0.229883 0.172266 0.090554
v 0.229883 0.198915 -0.000000
v 0.229883 0.172266 -0.090554
v 0.229883 0.099458 -0.156844
v 0.229883 0.000000 -0.181107
v 0.106771 -0.081095 -0.129149
v 0.106771 -0.140460 -0.074564
v 0.106771 -0.162190 -0.000000
v 0.106771 -0.140460 0.074564
v 0.106771 -0.081095 0.129149
v 0.106771 0.000000 0.149128
v 0.106771 0.081095 0.129149
v 0.106771 0.140460 0.074564
v 0.106771 0.162190 -0.000000
v 0.106771 0.140460 -0.074564
v 0.106771 0.081095 -0.129149
v 0.106771 0.000000 -0.149128
v 0.356315 0.000000 -0.148556
v 0.356315 -0.081614 -0.128653
v 0.356315 -0.141360 -0.074278
v 0.356315 -0.163229 -0.000000
v 0.356315 -0.141360 0.074278
v 0.356315 -0.081614 0.128653
v 0.356315 0.000000 0.148556
v 0.356315 0.081614 0.128653
v 0.356315 0.141360 0.074278
v 0.356315 0.163229 -0.000000
v 0.356315 0.141360 -0.074278
v 0.356315 0.081614 -0.128653
v 0.168327 0.000000 -0.169909
v 0.168327 -0.092087 -0.147145
v 0.168327 -0.159500 -0.084954
v 0.168327 -0.184175 -0.000000
v 0.168327 -0.159500 0.084954
v 0.168327 -0.092087 0.147145
v 0.168327 0.000000 0.169909
v 0.168327 0.092087 0.147145
v 0.168327 0.159500 0.084954
v 0.168327 0.184175 -0.000000
v 0.168327 0.159500 -0.084954
v 0.168327 0.092087 -0.147145
v 0.293099 -0.092352 -0.146890
v 0.293099 -0.159959 -0.084807
v 0.293099 -0.184705 -0.000000
v 0.293099 -0.159959 0.084807
v 0.293099 -0.092352 0.146890
v 0.293099 0.000000 0.169614
v 0.293099 0.092352 0.146890
v 0.293099 0.159959 0.084807
v 0.293099 0.184705 -0.000000
v 0.293099 0.159959 -0.084807
v 0.293099 0.092352 -0.146890
v 0.293099 0.000000 -0.169614
vn -1.0000 -0.0000 -0.0000
vn 0.4105 0.4197 -0.8096
vn 0.3580 -0.0000 -0.9337
vn 0.3612 0.4382 -0.8231
vn 0.4223 0.7630 -0.4893
vn 0.3682 0.7885 -0.4925
vn 0.4286 0.9035 -0.0000
vn 0.3721 0.9282 -0.0000
vn 0.3682 0.7885 0.4925
vn 0.3612 0.4382 0.8231
vn 0.4223 0.7630 0.4893
vn 0.3580 -0.0000 0.9337
vn 0.4105 0.4197 0.8096
vn 0.4105 -0.4197 0.8096
vn 0.3612 -0.4382 0.8231
vn 0.4223 -0.7630 0.4893
vn 0.3682 -0.7885 0.4925
vn 0.4286 -0.9035 -0.0000
vn 0.3721 -0.9282 -0.0000
vn 0.3682 -0.7885 -0.4925
vn 0.3612 -0.4382 -0.8231
vn 0.4223 -0.7630 -0.4893
vn 0.4105 -0.4197 -0.8096
vn -0.0004 -0.0000 -1.0000
vn -0.2550 -0.4564 -0.8525
vn -0.2472 -0.0000 -0.9690
vn -0.0020 -0.4748 -0.8801
vn -0.2720 -0.8168 -0.5088
vn -0.0064 -0.9598 -0.2806
vn -0.2710 -0.9241 -0.2696
vn -0.2710 -0.9241 0.2696
vn -0.0064 -0.9598 0.2806
vn -0.2720 -0.8168 0.5088
vn -0.0020 -0.4748 0.8801
vn -0.2550 -0.4564 0.8525
vn -0.0004 -0.0000 1.0000
vn -0.2472 -0.0000 0.9690
vn -0.2550 0.4564 0.8525
vn -0.0020 0.4748 0.8801
vn -0.2720 0.8168 0.5088
vn -0.0064 0.9598 0.2806
vn -0.2710 0.9241 0.2696
vn -0.2710 0.9241 -0.2696
vn -0.0064 0.9598 -0.2806
vn -0.2720 0.8168 -0.5088
vn -0.0020 0.4748 -0.8801
vn -0.2550 0.4564 -0.8525
vn -0.4181 0.4260 -0.8023
vn -0.3634 -0.0000 -0.9316
vn -0.4111 -0.0000 -0.9116
vn -0.4332 0.7634 -0.4791
vn -0.3689 0.4399 -0.8188
vn -0.4415 0.8973 -0.0000
vn -0.3803 0.7861 -0.4873
vn -0.3803 0.7861 0.4873
vn -0.4332 0.7634 0.4791
vn -0.3689 0.4399 0.8188
vn -0.4181 0.4260 0.8023
vn -0.3634 -0.0000 0.9316
vn -0.4111 -0.0000 0.9116
vn -0.4181 -0.4260 0.8023
vn -0.4332 -0.7634 0.4791
vn -0.3689 -0.4399 0.8188
vn -0.4415 -0.8973 -0.0000
vn -0.3803 -0.7861 0.4873
vn -0.3803 -0.7861 -0.4873
vn -0.4332 -0.7634 -0.4791
vn -0.3689 -0.4399 -0.8188
vn -0.4181 -0.4260 -0.8023
vn 0.2450 -0.0000 -0.9695
vn 0.2500 -0.4556 -0.8544
vn 0.2613 -0.8186 -0.5114
vn 0.2577 -0.9273 -0.2713
vn 0.2613 -0.8186 0.5114
vn 0.2577 -0.9273 0.2713
vn 0.2500 -0.4556 0.8544
vn 0.2450 -0.0000 0.9695
vn 0.2500 0.4556 0.8544
vn 0.2613 0.8186 0.5114
vn 0.2577 0.9273 0.2713
vn 0.2613 0.8186 -0.5114
vn 0.2577 0.9273 -0.2713
vn 0.2500 0.4556 -0.8544
vn -0.3863 0.9224 -0.0000
vn -0.3863 -0.9224 -0.0000
vn -0.0035 0.6732 -0.7394
vn -0.0064 0.9593 -0.2823
vn -0.0064 0.9593 0.2823
vn -0.0035 0.6732 0.7394
vn -0.0035 -0.6732 0.7394
vn -0.0064 -0.9593 0.2823
vn -0.0064 -0.9593 -0.2823
vn -0.0035 -0.6732 -0.7394
vn 1.0000 -0.0000 -0.0000
vn 0.4050 -0.0000 -0.9143
vn 0.4050 -0.0000 0.9143
vt 0.082064 0.492356
vt 0.171685 0.526174
vt 0.104098 0.585576
vt 0.060874 0.830999
vt 0.006355 0.766462
vt 0.049410 0.760664
vt 0.088560 0.828215
vt 0.085641 0.759626
vt 0.114935 0.828855
vt 0.117164 0.761168
vt 0.146812 0.764227
vt 0.176390 0.768578
vt 0.141018 0.829778
vt 0.206527 0.773602
vt 0.167964 0.832299
vt 0.222549 0.841982
vt 0.236553 0.779249
vt 0.248719 0.848883
vt 0.265824 0.785337
vt 0.273528 0.856988
vt 0.294716 0.792661
vt 0.324847 0.802055
vt 0.358513 0.815491
vt 0.298516 0.865459
vt 0.396949 0.835744
vt 0.323556 0.877596
vt 0.426807 0.767563
vt 0.379003 0.731384
vt 0.427509 0.731469
vt 0.375140 0.758795
vt 0.340790 0.728869
vt 0.336786 0.752226
vt 0.308312 0.725342
vt 0.275652 0.741535
vt 0.278241 0.721106
vt 0.245500 0.736170
vt 0.248232 0.716164
vt 0.214154 0.730598
vt 0.217669 0.710784
vt 0.187120 0.705325
vt 0.182805 0.725050
vt 0.157241 0.699646
vt 0.152647 0.719718
vt 0.127549 0.693281
vt 0.091567 0.708732
vt 0.095841 0.685424
vt 0.053296 0.701711
vt 0.059096 0.674645
vt 0.001768 0.692176
vt 0.013521 0.658043
vt 0.031612 0.626012
vt 0.080261 0.568998
vt 0.129133 0.597652
vt 0.069751 0.646443
vt 0.154502 0.606192
vt 0.103320 0.660037
vt 0.162514 0.676964
vt 0.179641 0.614544
vt 0.191739 0.683069
vt 0.205741 0.621612
vt 0.221586 0.688696
vt 0.232337 0.628076
vt 0.259535 0.631151
vt 0.286474 0.633490
vt 0.251549 0.693676
vt 0.312953 0.634292
vt 0.281091 0.697994
vt 0.342498 0.702456
vt 0.339713 0.634996
vt 0.378696 0.701236
vt 0.367375 0.632266
vt 0.421537 0.695167
vt 0.395461 0.624896
vt 0.415169 0.802756
vt 0.369338 0.786580
vt 0.332467 0.776105
vt 0.300754 0.768429
vt 0.271082 0.762124
vt 0.241179 0.756427
vt 0.210546 0.750943
vt 0.179896 0.745557
vt 0.149857 0.740623
vt 0.119828 0.736339
vt 0.087411 0.732639
vt 0.049189 0.729795
vt 0.000593 0.729222
vt 0.133535 0.669559
vt 0.310850 0.701007
vt 0.123364 0.714498
vt 0.304946 0.746705
vt 0.112157 0.882932
vt 0.024587 0.929411
vt 0.032380 0.838360
vt 0.066880 0.543231
vt 0.067540 0.515178
vt 0.106561 0.480882
vt 0.134467 0.483828
vt 0.158304 0.500406
vt 0.171024 0.554227
vt 0.156500 0.577048
vt 0.132003 0.588523
vt 0.195543 0.835525
vt 0.347781 0.894309
vt 0.088162 0.837724
vt 0.106933 0.856733
vt 0.102434 0.909301
vt 0.080369 0.928775
vt 0.051875 0.936135
vt 0.005816 0.910402
vt 0.000593 0.884203
vt 0.010316 0.857834
s 1
usemtl マテリアル
f 4/1/1 8/2/1 12/3/1
f 24/4/2 49/5/3 60/6/4
f 23/7/5 60/6/4 59/8/6
f 22/9/7 59/8/6 58/10/8
f 57/11/9 22/9/7 58/10/8
f 56/12/10 21/13/11 57/11/9
f 55/14/12 20/15/13 56/12/10
f 18/16/14 55/14/12 54/17/15
f 17/18/16 54/17/15 53/19/17
f 16/20/18 53/19/17 52/21/19
f 51/22/20 16/20/18 52/21/19
f 50/23/21 15/24/22 51/22/20
f 49/25/3 14/26/23 50/23/21
f 36/27/24 62/28/25 61/29/26
f 25/30/27 63/31/28 62/28/25
f 26/32/29 64/33/30 63/31/28
f 64/33/31 28/34/32 65/35/33
f 65/35/33 29/36/34 66/37/35
f 66/37/35 30/38/36 67/39/37
f 30/38/36 68/40/38 67/39/37
f 31/41/39 69/42/40 68/40/38
f 32/43/41 70/44/42 69/42/40
f 70/44/43 34/45/44 71/46/45
f 71/46/45 35/47/46 72/48/47
f 72/48/47 36/49/24 61/50/26
f 12/3/48 48/51/49 1/52/50
f 11/53/51 47/54/52 12/3/48
f 10/55/53 46/56/54 11/53/51
f 44/57/55 10/55/53 9/58/56
f 43/59/57 9/58/56 8/60/58
f 42/61/59 8/60/58 7/62/60
f 6/63/61 42/61/59 7/62/60
f 5/64/62 41/65/63 6/63/61
f 4/66/64 40/67/65 5/64/62
f 38/68/66 4/66/64 3/69/67
f 37/70/68 3/69/67 2/71/69
f 48/72/49 2/71/69 1/73/50
f 84/74/70 50/23/21 73/75/71
f 73/75/71 51/22/20 74/76/72
f 74/76/72 52/21/19 75/77/73
f 52/21/19 76/78/74 75/77/75
f 53/19/17 77/79/76 76/78/74
f 54/17/15 78/80/77 77/79/76
f 78/80/77 56/12/10 79/81/78
f 79/81/78 57/11/9 80/82/79
f 80/82/79 58/10/8 81/83/80
f 58/10/8 82/84/81 81/83/82
f 59/8/6 83/85/83 82/84/81
f 60/6/4 84/86/70 83/85/83
f 47/54/52 61/50/26 48/51/49
f 46/56/54 72/48/47 47/54/52
f 45/87/84 71/46/45 46/56/54
f 69/42/40 45/87/84 44/57/55
f 68/40/38 44/57/55 43/59/57
f 67/39/37 43/59/57 42/61/59
f 41/65/63 67/39/37 42/61/59
f 40/67/65 66/37/35 41/65/63
f 39/88/85 65/35/33 40/67/65
f 63/31/28 39/88/85 38/68/66
f 62/28/25 38/68/66 37/70/68
f 61/29/26 37/70/68 48/72/49
f 83/85/83 36/49/24 35/47/46
f 82/84/81 35/47/46 34/45/86
f 81/83/82 34/45/44 33/89/87
f 32/43/41 81/83/80 33/89/88
f 31/41/39 80/82/79 32/43/89
f 30/38/36 79/81/78 31/41/39
f 77/79/76 30/38/36 29/36/34
f 76/78/74 29/36/34 28/34/90
f 75/77/75 28/34/32 27/90/91
f 26/32/29 75/77/73 27/90/92
f 25/30/27 74/76/72 26/32/93
f 36/27/24 73/75/71 25/30/27
f 21/91/94 17/92/94 13/93/94
f 12/3/1 1/52/1 2/94/1
f 2/94/1 3/95/1 4/1/1
f 4/1/1 5/96/1 6/97/1
f 6/97/1 7/98/1 8/2/1
f 8/2/1 9/99/1 10/100/1
f 10/100/1 11/101/1 12/3/1
f 12/3/1 2/94/1 4/1/1
f 4/1/1 6/97/1 8/2/1
f 8/2/1 10/100/1 12/3/1
f 24/4/2 13/93/95 49/5/3
f 23/7/5 24/4/2 60/6/4
f 22/9/7 23/7/5 59/8/6
f 57/11/9 21/13/11 22/9/7
f 56/12/10 20/15/13 21/13/11
f 55/14/12 19/102/96 20/15/13
f 18/16/14 19/102/96 55/14/12
f 17/18/16 18/16/14 54/17/15
f 16/20/18 17/18/16 53/19/17
f 51/22/20 15/24/22 16/20/18
f 50/23/21 14/26/23 15/24/22
f 49/25/3 13/103/95 14/26/23
f 36/27/24 25/30/27 62/28/25
f 25/30/27 26/32/93 63/31/28
f 26/32/29 27/90/92 64/33/30
f 64/33/31 27/90/91 28/34/32
f 65/35/33 28/34/90 29/36/34
f 66/37/35 29/36/34 30/38/36
f 30/38/36 31/41/39 68/40/38
f 31/41/39 32/43/89 69/42/40
f 32/43/41 33/89/88 70/44/42
f 70/44/43 33/89/87 34/45/44
f 71/46/45 34/45/86 35/47/46
f 72/48/47 35/47/46 36/49/24
f 12/3/48 47/54/52 48/51/49
f 11/53/51 46/56/54 47/54/52
f 10/55/53 45/87/84 46/56/54
f 44/57/55 45/87/84 10/55/53
f 43/59/57 44/57/55 9/58/56
f 42/61/59 43/59/57 8/60/58
f 6/63/61 41/65/63 42/61/59
f 5/64/62 40/67/65 41/65/63
f 4/66/64 39/88/85 40/67/65
f 38/68/66 39/88/85 4/66/64
f 37/70/68 38/68/66 3/69/67
f 48/72/49 37/70/68 2/71/69
f 84/74/70 49/25/3 50/23/21
f 73/75/71 50/23/21 51/22/20
f 74/76/72 51/22/20 52/21/19
f 52/21/19 53/19/17 76/78/74
f 53/19/17 54/17/15 77/79/76
f 54/17/15 55/14/12 78/80/77
f 78/80/77 55/14/12 56/12/10
f 79/81/78 56/12/10 57/11/9
f 80/82/79 57/11/9 58/10/8
f 58/10/8 59/8/6 82/84/81
f 59/8/6 60/6/4 83/85/83
f 60/6/4 49/5/3 84/86/70
f 47/54/52 72/48/47 61/50/26
f 46/56/54 71/46/45 72/48/47
f 45/87/84 70/44/43 71/46/45
f 69/42/40 70/44/42 45/87/84
f 68/40/38 69/42/40 44/57/55
f 67/39/37 68/40/38 43/59/57
f 41/65/63 66/37/35 67/39/37
f 40/67/65 65/35/33 66/37/35
f 39/88/85 64/33/31 65/35/33
f 63/31/28 64/33/30 39/88/85
f 62/28/25 63/31/28 38/68/66
f 61/29/26 62/28/25 37/70/68
f 83/85/83 84/86/70 36/49/24
f 82/84/81 83/85/83 35/47/46
f 81/83/82 82/84/81 34/45/44
f 32/43/41 80/82/79 81/83/80
f 31/41/39 79/81/78 80/82/79
f 30/38/36 78/80/77 79/81/78
f 77/79/76 78/80/77 30/38/36
f 76/78/74 77/79/76 29/36/34
f 75/77/75 76/78/74 28/34/32
f 26/32/29 74/76/72 75/77/73
f 25/30/27 73/75/71 74/76/72
f 36/27/24 84/74/70 73/75/71
f 13/93/94 24/4/94 23/104/94
f 23/104/94 22/105/94 21/91/94
f 21/91/94 20/106/94 19/107/94
f 19/107/94 18/108/94 17/92/94
f 17/92/94 16/109/94 15/110/94
f 15/110/94 14/111/94 13/93/94
f 13/93/94 23/104/94 21/91/94
f 21/91/94 19/107/94 17/92/94
f 17/92/94 15/110/94 13/93/94
