# Blender 4.4.1
# www.blender.org
mtllib ArmL_01.mtl
o ArmL_01
v -0.016255 -0.064428 0.066981
v -0.016255 0.064428 0.066981
v -0.016255 -0.064428 -0.066981
v -0.016255 0.064428 -0.066981
v 0.485735 -0.064428 -0.066981
v 0.485735 0.064428 -0.066981
v 0.485735 -0.064428 0.066981
v 0.485735 0.064428 0.066981
v 0.234740 -0.121277 -0.126083
v 0.234740 0.121277 0.126083
v 0.234740 0.121277 -0.126083
v 0.234740 -0.121277 0.126083
v -0.016255 -0.100000 0.000000
v -0.016255 0.100000 0.000000
v 0.485735 0.100000 0.000000
v 0.485735 -0.100000 0.000000
v 0.234740 -0.188237 0.000000
v 0.234740 0.188237 0.000000
v -0.016255 0.000000 0.100000
v -0.016255 0.000000 -0.100000
v 0.485735 0.000000 0.100000
v 0.485735 0.000000 -0.100000
v 0.234740 0.000000 -0.188237
v 0.234740 0.000000 0.188237
v -0.016255 0.000000 0.000000
vn -1.0000 -0.0000 -0.0000
vn -0.2986 0.4353 0.8493
vn -0.2965 0.8435 0.4479
vn 0.2965 -0.8435 0.4479
vn 0.2986 0.4353 -0.8493
vn -0.2986 0.4353 -0.8493
vn -0.2965 -0.8435 0.4479
vn 0.2965 0.8435 0.4479
vn 0.2986 0.4353 0.8493
vn 0.2965 0.8435 -0.4479
vn -0.2965 -0.8435 -0.4479
vn 0.2965 -0.8435 -0.4479
vn -0.2965 0.8435 -0.4479
vn 0.2986 -0.4353 0.8493
vn -0.2986 -0.4353 -0.8493
vn 0.2986 -0.4353 -0.8493
vn -0.2986 -0.4353 0.8493
vn 1.0000 -0.0000 -0.0000
vt 0.542664 0.726518
vt 0.512913 0.752409
vt 0.500205 0.723969
vt 0.653869 0.776747
vt 0.580643 0.729438
vt 0.666668 0.739006
vt 0.560842 0.782828
vt 0.643362 0.808224
vt 0.694231 0.948534
vt 0.583783 0.988499
vt 0.600686 0.937139
vt 0.633231 0.838637
vt 0.706392 0.891587
vt 0.623388 0.868355
vt 0.542560 0.837459
vt 0.518455 0.890648
vt 0.500205 0.916539
vt 0.724123 0.837066
vt 0.733466 0.808932
vt 0.737845 0.782994
vt 0.713490 0.864508
vt 0.612849 0.900230
vt 0.532456 0.864134
vt 0.570207 0.754537
vt 0.573697 0.701733
vt 0.546121 0.683975
vt 0.686097 0.683813
vt 0.761649 0.768230
vt 0.698704 0.918955
vt 0.516123 0.697142
vt 0.790588 0.771644
vt 0.800303 0.825104
vt 0.746843 0.834819
vt 0.541016 0.768860
vt 0.693569 0.980151
vt 0.553010 0.811385
vt 0.803965 0.797531
vt 0.775781 0.838233
s 1
usemtl Material
f 25/1/1 4/2/1 20/3/1
f 10/4/2 19/5/2 24/6/2
f 14/7/3 10/4/3 18/8/3
f 16/9/4 12/10/4 17/11/4
f 11/12/5 22/13/5 23/14/5
f 20/15/6 11/12/6 23/14/6
f 13/16/7 12/10/7 1/17/7
f 15/18/8 10/4/8 8/19/8
f 21/20/9 10/4/9 24/6/9
f 11/12/10 15/18/10 6/21/10
f 9/22/11 13/16/11 3/23/11
f 9/22/12 16/9/12 17/11/12
f 11/12/13 14/7/13 18/8/13
f 2/24/1 25/1/1 19/5/1
f 1/25/1 25/1/1 13/26/1
f 21/20/14 12/27/14 7/28/14
f 20/15/15 9/22/15 3/23/15
f 9/22/16 22/13/16 5/29/16
f 12/27/17 19/5/17 1/25/17
f 25/1/1 3/30/1 13/26/1
f 16/31/18 22/32/18 15/33/18
f 25/1/1 14/34/1 4/2/1
f 10/4/2 2/24/2 19/5/2
f 14/7/3 2/24/3 10/4/3
f 16/9/4 7/35/4 12/10/4
f 11/12/5 6/21/5 22/13/5
f 20/15/6 4/36/6 11/12/6
f 13/16/7 17/11/7 12/10/7
f 15/18/8 18/8/8 10/4/8
f 21/20/9 8/19/9 10/4/9
f 11/12/10 18/8/10 15/18/10
f 9/22/11 17/11/11 13/16/11
f 9/22/12 5/29/12 16/9/12
f 11/12/13 4/36/13 14/7/13
f 2/24/1 14/34/1 25/1/1
f 1/25/1 19/5/1 25/1/1
f 21/20/14 24/6/14 12/27/14
f 20/15/15 23/14/15 9/22/15
f 9/22/16 23/14/16 22/13/16
f 12/27/17 24/6/17 19/5/17
f 25/1/1 20/3/1 3/30/1
f 15/33/18 8/19/18 21/20/18
f 21/20/18 7/28/18 16/31/18
f 16/31/18 5/37/18 22/32/18
f 22/32/18 6/38/18 15/33/18
f 15/33/18 21/20/18 16/31/18
