# Blender 4.4.1
# www.blender.org
mtllib ArmR_01.mtl
o ArmR_01
v 0.016255 -0.064428 0.066981
v 0.016255 0.064428 0.066981
v 0.016255 -0.064428 -0.066981
v 0.016255 0.064428 -0.066981
v -0.485736 -0.064428 -0.066981
v -0.485736 0.064428 -0.066981
v -0.485736 -0.064428 0.066981
v -0.485736 0.064428 0.066981
v -0.234741 -0.121277 -0.126083
v -0.234741 0.121277 0.126083
v -0.234741 0.121277 -0.126083
v -0.234741 -0.121277 0.126083
v 0.016255 -0.100000 0.000000
v 0.016255 0.100000 0.000000
v -0.485736 0.100000 0.000000
v -0.485736 -0.100000 0.000000
v -0.234741 -0.188237 0.000000
v -0.234741 0.188237 0.000000
v 0.016255 0.000000 0.100000
v 0.016255 0.000000 -0.100000
v -0.485736 0.000000 0.100000
v -0.485736 0.000000 -0.100000
v -0.234741 0.000000 -0.188237
v -0.234741 0.000000 0.188237
v 0.016255 0.000000 0.000000
vn 1.0000 -0.0000 -0.0000
vn 0.2986 0.4353 0.8493
vn 0.2965 0.8435 0.4479
vn -0.2965 -0.8435 0.4479
vn -0.2986 0.4353 -0.8493
vn 0.2986 0.4353 -0.8493
vn 0.2965 -0.8435 0.4479
vn -0.2965 0.8435 0.4479
vn -0.2986 0.4353 0.8493
vn -0.2965 0.8435 -0.4479
vn 0.2965 -0.8435 -0.4479
vn -0.2965 -0.8435 -0.4479
vn 0.2965 0.8435 -0.4479
vn -0.2986 -0.4353 0.8493
vn 0.2986 -0.4353 -0.8493
vn -0.2986 -0.4353 -0.8493
vn 0.2986 -0.4353 0.8493
vn -1.0000 -0.0000 -0.0000
vt 0.250443 0.574887
vt 0.220692 0.600779
vt 0.207984 0.572338
vt 0.361648 0.625116
vt 0.288422 0.577807
vt 0.374447 0.587375
vt 0.268621 0.631197
vt 0.351141 0.656593
vt 0.402010 0.796903
vt 0.291562 0.836868
vt 0.308465 0.785508
vt 0.341010 0.687006
vt 0.414171 0.739956
vt 0.331167 0.716724
vt 0.250339 0.685828
vt 0.226234 0.739017
vt 0.207984 0.764909
vt 0.431902 0.685435
vt 0.441245 0.657301
vt 0.445624 0.631363
vt 0.421269 0.712877
vt 0.320628 0.748599
vt 0.240235 0.712503
vt 0.277986 0.602907
vt 0.281476 0.550103
vt 0.253900 0.532344
vt 0.393876 0.532183
vt 0.469428 0.616599
vt 0.406483 0.767324
vt 0.223902 0.545512
vt 0.498367 0.620013
vt 0.508081 0.673473
vt 0.454621 0.683188
vt 0.248795 0.617229
vt 0.401348 0.828520
vt 0.260789 0.659754
vt 0.511744 0.645900
vt 0.483560 0.686602
s 1
usemtl Material
f 25/1/1 20/3/1 4/2/1
f 10/4/2 24/6/2 19/5/2
f 14/7/3 18/8/3 10/4/3
f 16/9/4 17/11/4 12/10/4
f 11/12/5 23/14/5 22/13/5
f 20/15/6 23/14/6 11/12/6
f 13/16/7 1/17/7 12/10/7
f 15/18/8 8/19/8 10/4/8
f 21/20/9 24/6/9 10/4/9
f 11/12/10 6/21/10 15/18/10
f 9/22/11 3/23/11 13/16/11
f 9/22/12 17/11/12 16/9/12
f 11/12/13 18/8/13 14/7/13
f 2/24/1 19/5/1 25/1/1
f 1/25/1 13/26/1 25/1/1
f 21/20/14 7/28/14 12/27/14
f 20/15/15 3/23/15 9/22/15
f 9/22/16 5/29/16 22/13/16
f 12/27/17 1/25/17 19/5/17
f 25/1/1 13/26/1 3/30/1
f 16/31/18 15/33/18 22/32/18
f 25/1/1 4/2/1 14/34/1
f 10/4/2 19/5/2 2/24/2
f 14/7/3 10/4/3 2/24/3
f 16/9/4 12/10/4 7/35/4
f 11/12/5 22/13/5 6/21/5
f 20/15/6 11/12/6 4/36/6
f 13/16/7 12/10/7 17/11/7
f 15/18/8 10/4/8 18/8/8
f 21/20/9 10/4/9 8/19/9
f 11/12/10 15/18/10 18/8/10
f 9/22/11 13/16/11 17/11/11
f 9/22/12 16/9/12 5/29/12
f 11/12/13 14/7/13 4/36/13
f 2/24/1 25/1/1 14/34/1
f 1/25/1 25/1/1 19/5/1
f 21/20/14 12/27/14 24/6/14
f 20/15/15 9/22/15 23/14/15
f 9/22/16 22/13/16 23/14/16
f 12/27/17 19/5/17 24/6/17
f 25/1/1 3/30/1 20/3/1
f 15/33/18 21/20/18 8/19/18
f 21/20/18 16/31/18 7/28/18
f 16/31/18 22/32/18 5/37/18
f 22/32/18 15/33/18 6/38/18
f 15/33/18 16/31/18 21/20/18
