# Blender 4.4.1
# www.blender.org
mtllib ArmR_02.mtl
o ArmR_02
v -0.375698 -0.075000 0.075000
v -0.375698 0.075000 0.075000
v -0.375698 -0.075000 -0.075000
v -0.375698 0.075000 -0.075000
v -0.525698 -0.075000 0.075000
v -0.525698 0.075000 0.075000
v -0.525698 -0.075000 -0.075000
v -0.525698 0.075000 -0.075000
v -0.364758 -0.085940 -0.044498
v -0.359263 -0.091435 -0.000000
v -0.364758 -0.085940 0.044497
v -0.364758 -0.044498 0.085940
v -0.359263 0.000000 0.091435
v -0.364758 0.044497 0.085940
v -0.364758 0.085940 0.044497
v -0.359263 0.091435 0.000000
v -0.364758 0.085940 -0.044498
v -0.364758 0.044498 -0.085940
v -0.359263 0.000000 -0.091435
v -0.364758 -0.044498 -0.085940
v -0.495196 -0.085940 -0.085940
v -0.450698 -0.091435 -0.091435
v -0.406201 -0.085940 -0.085940
v -0.406201 0.085940 -0.085940
v -0.450698 0.091435 -0.091435
v -0.495196 0.085940 -0.085940
v -0.536638 0.044498 -0.085940
v -0.542133 0.000000 -0.091435
v -0.536638 -0.044498 -0.085940
v -0.536638 -0.085940 0.044497
v -0.542133 -0.091435 0.000000
v -0.536638 -0.085940 -0.044497
v -0.536638 0.085940 -0.044497
v -0.542133 0.091435 -0.000000
v -0.536638 0.085940 0.044497
v -0.536638 0.044498 0.085940
v -0.542133 0.000000 0.091435
v -0.536638 -0.044498 0.085940
v -0.406201 -0.085940 0.085940
v -0.450698 -0.091435 0.091435
v -0.495196 -0.085940 0.085940
v -0.495196 0.085940 0.085940
v -0.450698 0.091435 0.091435
v -0.406201 0.085940 0.085940
v -0.341350 -0.047424 0.047424
v -0.333424 -0.000000 0.049971
v -0.341350 0.047424 0.047424
v -0.333424 -0.049971 0.000000
v -0.324772 0.000000 -0.000000
v -0.333424 0.049971 0.000000
v -0.341350 -0.047424 -0.047424
v -0.333424 0.000000 -0.049971
v -0.341349 0.047424 -0.047424
v -0.403274 -0.047424 -0.109348
v -0.400727 -0.000000 -0.117274
v -0.403274 0.047424 -0.109348
v -0.450698 -0.049971 -0.117274
v -0.450698 0.000000 -0.125926
v -0.450698 0.049971 -0.117274
v -0.498122 -0.047424 -0.109348
v -0.500669 0.000000 -0.117274
v -0.498122 0.047424 -0.109348
v -0.560047 -0.047424 -0.047424
v -0.567973 -0.000000 -0.049971
v -0.560046 0.047424 -0.047424
v -0.567973 -0.049971 -0.000000
v -0.576624 0.000000 -0.000000
v -0.567973 0.049971 -0.000000
v -0.560047 -0.047424 0.047424
v -0.567973 0.000000 0.049971
v -0.560047 0.047424 0.047424
v -0.498122 -0.047424 0.109348
v -0.500669 -0.000000 0.117274
v -0.498122 0.047424 0.109348
v -0.450698 -0.049971 0.117274
v -0.450698 0.000000 0.125926
v -0.450698 0.049971 0.117274
v -0.403274 -0.047424 0.109348
v -0.400727 0.000000 0.117274
v -0.403275 0.047424 0.109348
v -0.403274 -0.109348 -0.047424
v -0.450698 -0.117274 -0.049971
v -0.498122 -0.109348 -0.047424
v -0.400727 -0.117274 -0.000000
v -0.450698 -0.125926 0.000000
v -0.500669 -0.117274 -0.000000
v -0.403274 -0.109348 0.047424
v -0.450698 -0.117274 0.049971
v -0.498122 -0.109348 0.047424
v -0.498122 0.109348 -0.047424
v -0.450698 0.117274 -0.049971
v -0.403274 0.109348 -0.047424
v -0.500669 0.117274 -0.000000
v -0.450698 0.125926 -0.000000
v -0.400727 0.117274 -0.000000
v -0.498122 0.109348 0.047424
v -0.450698 0.117274 0.049971
v -0.403275 0.109348 0.047424
v -0.339606 -0.064428 0.066981
v -0.339606 0.064428 0.066981
v -0.339606 -0.064428 -0.066981
v -0.339606 0.064428 -0.066981
v 0.036164 -0.064428 -0.066981
v 0.036164 0.064428 -0.066981
v 0.036164 -0.064428 0.066981
v 0.036164 0.064428 0.066981
v -0.151721 0.086944 -0.090390
v -0.151721 -0.086944 0.090390
v -0.151721 -0.086944 -0.090390
v -0.151721 0.086944 0.090390
v -0.339606 -0.100000 0.000000
v -0.339606 0.100000 0.000000
v 0.036164 0.100000 0.000000
v 0.036164 -0.100000 0.000000
v -0.151721 0.134949 0.000000
v -0.151721 -0.134949 0.000000
v -0.339606 0.000000 -0.100000
v -0.339606 0.000000 0.100000
v 0.036164 0.000000 0.100000
v 0.036164 0.000000 -0.100000
v -0.151721 0.000000 0.134949
v -0.151721 0.000000 -0.134949
v -0.339606 0.000000 0.000000
v -0.007993 -0.064428 -0.066981
v -0.007993 0.064428 0.066981
v -0.007993 0.064428 -0.066981
v -0.007993 -0.064428 0.066981
v -0.007993 -0.100000 0.000000
v -0.007993 0.100000 0.000000
v -0.007993 0.000000 -0.100000
v -0.007993 0.000000 0.100000
vn 0.8797 -0.3362 0.3362
vn 1.0000 -0.0000 -0.0000
vn 0.9348 -0.3553 -0.0000
vn 0.8797 0.3362 0.3362
vn 0.9347 -0.0000 0.3553
vn 0.8797 -0.3362 -0.3362
vn 0.8797 0.3362 -0.3362
vn 0.9348 -0.0000 -0.3553
vn 0.5774 -0.5773 0.5773
vn 0.6737 -0.6737 0.3038
vn 0.6737 -0.3038 0.6737
vn 0.6737 0.3038 0.6737
vn 0.7071 -0.0000 0.7071
vn 0.5774 0.5773 0.5774
vn 0.6737 0.6737 0.3038
vn 0.9348 0.3553 -0.0000
vn 0.6737 0.6737 -0.3038
vn 0.5774 0.5773 -0.5773
vn 0.6737 0.3038 -0.6737
vn 0.7071 -0.0000 -0.7071
vn 0.6737 -0.3038 -0.6737
vn 0.5774 -0.5773 -0.5774
vn 0.6737 -0.6737 -0.3038
vn 0.7071 -0.7071 -0.0000
vn 0.3362 -0.3362 -0.8797
vn -0.0000 -0.0000 -1.0000
vn -0.0000 -0.3553 -0.9348
vn 0.3362 0.3362 -0.8797
vn 0.3553 -0.0000 -0.9348
vn -0.3362 -0.3362 -0.8797
vn -0.3362 0.3362 -0.8797
vn -0.3553 -0.0000 -0.9348
vn 0.3038 -0.6737 -0.6737
vn 0.3038 0.6737 -0.6737
vn -0.0000 0.3553 -0.9348
vn -0.3038 0.6737 -0.6737
vn -0.5774 0.5774 -0.5773
vn -0.6737 0.3038 -0.6737
vn -0.7071 -0.0000 -0.7071
vn -0.6737 -0.3038 -0.6737
vn -0.5773 -0.5774 -0.5774
vn -0.3038 -0.6737 -0.6737
vn -0.0000 -0.7071 -0.7071
vn -0.8797 -0.3362 -0.3362
vn -1.0000 -0.0000 -0.0000
vn -0.9348 -0.3553 -0.0000
vn -0.8797 0.3362 -0.3362
vn -0.9348 -0.0000 -0.3553
vn -0.8797 -0.3362 0.3362
vn -0.8797 0.3362 0.3362
vn -0.9348 -0.0000 0.3553
vn -0.6737 -0.6737 -0.3038
vn -0.6737 0.6737 -0.3038
vn -0.9348 0.3553 -0.0000
vn -0.6737 0.6737 0.3038
vn -0.5773 0.5774 0.5774
vn -0.6737 0.3038 0.6737
vn -0.7071 -0.0000 0.7071
vn -0.6737 -0.3038 0.6737
vn -0.5773 -0.5774 0.5774
vn -0.6737 -0.6737 0.3038
vn -0.7071 -0.7071 -0.0000
vn -0.3362 -0.3362 0.8797
vn -0.0000 -0.0000 1.0000
vn -0.0000 -0.3553 0.9348
vn -0.3362 0.3362 0.8797
vn -0.3553 -0.0000 0.9348
vn 0.3362 -0.3362 0.8797
vn 0.3362 0.3362 0.8797
vn 0.3553 -0.0000 0.9348
vn -0.3038 -0.6737 0.6737
vn -0.3038 0.6737 0.6737
vn -0.0000 0.3553 0.9348
vn 0.3038 0.6737 0.6737
vn 0.3038 -0.6737 0.6737
vn -0.0000 -0.7071 0.7071
vn 0.3362 -0.8797 -0.3362
vn -0.0000 -1.0000 -0.0000
vn 0.3553 -0.9348 -0.0000
vn -0.3362 -0.8797 -0.3362
vn -0.0000 -0.9348 -0.3553
vn 0.3362 -0.8797 0.3362
vn -0.3362 -0.8797 0.3362
vn -0.0000 -0.9348 0.3553
vn -0.3553 -0.9348 -0.0000
vn -0.3362 0.8797 -0.3362
vn -0.0000 1.0000 -0.0000
vn -0.3553 0.9348 -0.0000
vn 0.3362 0.8797 -0.3362
vn -0.0000 0.9348 -0.3553
vn -0.3362 0.8797 0.3362
vn 0.3362 0.8797 0.3362
vn -0.0000 0.9348 0.3553
vn -0.0000 0.7071 -0.7071
vn 0.3553 0.9348 -0.0000
vn -0.0000 0.7071 0.7071
vn -0.7071 0.7071 -0.0000
vn 0.0236 0.4560 -0.8897
vn -0.1633 0.4500 -0.8780
vn 0.0229 0.4560 -0.8897
vn -0.1621 -0.8715 0.4628
vn 0.0234 -0.8829 0.4689
vn 0.0227 -0.8829 0.4689
vn -0.0000 0.8832 0.4690
vn 0.1078 0.8780 0.4663
vn 0.1092 0.8779 0.4662
vn 0.1085 0.4534 0.8847
vn -0.0000 0.4561 0.8899
vn 0.1099 0.4533 0.8845
vn -0.1633 0.4500 0.8780
vn 0.0236 0.4560 0.8897
vn 0.0229 0.4560 0.8897
vn -0.1621 0.8715 0.4628
vn 0.0234 0.8829 0.4689
vn 0.1092 -0.8779 0.4662
vn 0.1078 -0.8780 0.4663
vn 0.1099 0.4533 -0.8845
vn 0.0234 -0.8829 -0.4689
vn 0.1092 -0.8779 -0.4662
vn 0.1078 -0.8780 -0.4663
vn 0.0234 0.8829 -0.4689
vn -0.1621 0.8715 -0.4628
vn -0.0000 0.8832 -0.4690
vn 0.1092 0.8779 -0.4662
vn 0.1078 0.8780 -0.4663
vn -0.1621 -0.8715 -0.4628
vn 0.0227 -0.8829 -0.4689
vn 0.1099 -0.4533 -0.8845
vn 0.0236 -0.4560 -0.8897
vn 0.1085 -0.4534 -0.8847
vn -0.1633 -0.4500 0.8780
vn 0.0236 -0.4560 0.8897
vn 0.1099 -0.4533 0.8845
vn -0.0000 -0.4561 0.8899
vn 0.1085 -0.4534 0.8847
vn -0.1633 -0.4500 -0.8780
vn -0.0000 -0.4561 -0.8899
vn 0.0227 0.8829 -0.4689
vn -0.0000 -0.8832 -0.4690
vn -0.0000 0.4561 -0.8899
vn -0.0000 -0.8832 0.4690
vn 0.0227 0.8829 0.4689
vn 0.7071 0.7071 -0.0000
vn 0.1085 0.4534 -0.8847
vn 0.0229 -0.4560 -0.8897
vn 0.0229 -0.4560 0.8897
vt 0.649507 0.320192
vt 0.628178 0.298863
vt 0.649507 0.298863
vt 0.606850 0.320192
vt 0.628178 0.320192
vt 0.649507 0.277534
vt 0.606849 0.277534
vt 0.628178 0.277534
vt 0.670836 0.341521
vt 0.670836 0.320192
vt 0.649507 0.341521
vt 0.606849 0.341521
vt 0.628178 0.341521
vt 0.585521 0.341521
vt 0.585521 0.320192
vt 0.606850 0.298863
vt 0.585521 0.277534
vt 0.585521 0.256205
vt 0.606849 0.256205
vt 0.628178 0.256205
vt 0.649507 0.256205
vt 0.670836 0.256205
vt 0.670836 0.277534
vt 0.670836 0.298863
vt 0.649507 0.234876
vt 0.628178 0.213547
vt 0.649507 0.213547
vt 0.606850 0.234876
vt 0.628178 0.234876
vt 0.649507 0.192218
vt 0.606849 0.192218
vt 0.628178 0.192218
vt 0.670836 0.234876
vt 0.585521 0.234876
vt 0.606850 0.213547
vt 0.585521 0.192218
vt 0.585521 0.170889
vt 0.606849 0.170889
vt 0.628178 0.170889
vt 0.649507 0.170889
vt 0.670836 0.170889
vt 0.670836 0.192218
vt 0.670836 0.213547
vt 0.649507 0.149560
vt 0.628178 0.128231
vt 0.649507 0.128231
vt 0.606850 0.149560
vt 0.628178 0.149560
vt 0.649507 0.106902
vt 0.606849 0.106902
vt 0.628178 0.106902
vt 0.670836 0.149560
vt 0.585521 0.149560
vt 0.606850 0.128231
vt 0.585521 0.106902
vt 0.585521 0.085573
vt 0.606849 0.085573
vt 0.628178 0.085573
vt 0.649507 0.085573
vt 0.670836 0.085573
vt 0.670836 0.106902
vt 0.670836 0.128231
vt 0.649507 0.064244
vt 0.628178 0.042915
vt 0.649507 0.042915
vt 0.606850 0.064244
vt 0.628178 0.064244
vt 0.649507 0.021586
vt 0.606849 0.021586
vt 0.628178 0.021586
vt 0.670836 0.064244
vt 0.585521 0.064244
vt 0.606850 0.042915
vt 0.585521 0.021586
vt 0.585521 0.000257
vt 0.606849 0.000257
vt 0.628178 0.000257
vt 0.649507 0.000257
vt 0.670836 0.000257
vt 0.670836 0.021586
vt 0.670836 0.042915
vt 0.734823 0.149560
vt 0.713494 0.128231
vt 0.734823 0.128231
vt 0.692165 0.149560
vt 0.713494 0.149560
vt 0.734823 0.106902
vt 0.692165 0.106902
vt 0.713494 0.106902
vt 0.756152 0.170889
vt 0.756152 0.149560
vt 0.734823 0.170889
vt 0.692165 0.170889
vt 0.713494 0.170889
vt 0.692165 0.128231
vt 0.692165 0.085573
vt 0.713494 0.085573
vt 0.734823 0.085573
vt 0.756152 0.085573
vt 0.756152 0.106902
vt 0.756152 0.128231
vt 0.564192 0.149560
vt 0.542863 0.128231
vt 0.564192 0.128231
vt 0.521534 0.149560
vt 0.542863 0.149560
vt 0.564192 0.106902
vt 0.521534 0.106902
vt 0.542863 0.106902
vt 0.564192 0.170889
vt 0.521534 0.170889
vt 0.542863 0.170889
vt 0.500205 0.170889
vt 0.500205 0.149560
vt 0.521534 0.128231
vt 0.500205 0.106902
vt 0.500205 0.085573
vt 0.521534 0.085573
vt 0.542863 0.085573
vt 0.564192 0.085573
vt 0.585521 0.128231
vt 0.889162 0.123314
vt 0.830051 0.091005
vt 0.891978 0.095795
vt 0.791901 0.187030
vt 0.822109 0.171728
vt 0.823158 0.195355
vt 0.832196 0.036627
vt 0.900635 0.000257
vt 0.897455 0.036252
vt 0.951689 0.160785
vt 0.929494 0.186357
vt 0.934863 0.158230
vt 0.937445 0.210753
vt 0.924872 0.211327
vt 0.881725 0.179872
vt 0.877525 0.208998
vt 0.824912 0.144535
vt 0.950036 0.044501
vt 0.955506 0.015511
vt 0.942235 0.101750
vt 0.894910 0.067323
vt 0.945386 0.073849
vt 0.828088 0.117240
vt 0.955334 0.131580
vt 0.938602 0.129404
vt 0.774729 0.157823
vt 0.756667 0.177570
vt 0.762395 0.203716
vt 0.783246 0.222488
vt 0.872741 0.243996
vt 0.810410 0.215448
vt 0.945331 0.232019
vt 0.929699 0.235831
vt 0.831783 0.064553
vt 0.959002 0.103974
vt 0.962494 0.076219
vt 0.885462 0.151733
vt 0.966905 0.047190
vt 0.971944 0.018494
vt 0.999743 0.212416
vt 0.966712 0.243996
vt 0.585521 0.298863
vt 0.585521 0.213547
vt 0.585521 0.042915
vt 0.500205 0.128231
vt 0.802160 0.152041
vt 0.830385 0.008549
vt 0.946266 0.190391
vt 0.968162 0.179385
vt 0.989543 0.191363
vt 0.988609 0.232990
s 1
usemtl Material
f 45/1/1 48/3/3 49/2/2
f 47/4/4 46/5/5 49/2/2
f 49/2/2 48/3/3 51/6/6
f 49/2/2 52/8/8 53/7/7
f 1/9/9 11/10/10 45/1/1
f 12/11/11 45/1/1 46/5/5
f 14/12/12 13/13/13 46/5/5
f 2/14/14 14/12/12 47/4/4
f 15/15/15 47/4/4 50/16/16
f 50/16/16 53/7/7 17/17/17
f 53/7/7 18/19/19 4/18/18
f 52/8/8 19/20/20 18/19/19
f 52/8/8 51/6/6 20/21/21
f 51/6/6 9/23/23 3/22/22
f 48/3/3 10/24/24 9/23/23
f 11/10/10 10/24/24 48/3/3
f 54/25/25 57/27/27 58/26/26
f 56/28/28 55/29/29 58/26/26
f 58/26/26 57/27/27 60/30/30
f 58/26/26 61/32/32 62/31/31
f 3/22/22 23/33/33 54/25/25
f 20/21/21 54/25/25 55/29/29
f 18/19/19 19/20/20 55/29/29
f 4/18/18 18/19/19 56/28/28
f 24/34/34 56/28/28 59/35/35
f 59/35/35 62/31/31 26/36/36
f 62/31/31 27/38/38 8/37/37
f 61/32/32 28/39/39 27/38/38
f 61/32/32 60/30/30 29/40/40
f 60/30/30 21/42/42 7/41/41
f 57/27/27 22/43/43 21/42/42
f 23/33/33 22/43/43 57/27/27
f 63/44/44 66/46/46 67/45/45
f 65/47/47 64/48/48 67/45/45
f 67/45/45 66/46/46 69/49/49
f 67/45/45 70/51/51 71/50/50
f 7/41/41 32/52/52 63/44/44
f 29/40/40 63/44/44 64/48/48
f 27/38/38 28/39/39 64/48/48
f 8/37/37 27/38/38 65/47/47
f 33/53/53 65/47/47 68/54/54
f 68/54/54 71/50/50 35/55/55
f 71/50/50 36/57/57 6/56/56
f 70/51/51 37/58/58 36/57/57
f 70/51/51 69/49/49 38/59/59
f 69/49/49 30/61/61 5/60/60
f 66/46/46 31/62/62 30/61/61
f 32/52/52 31/62/62 66/46/46
f 72/63/63 75/65/65 76/64/64
f 74/66/66 73/67/67 76/64/64
f 76/64/64 75/65/65 78/68/68
f 76/64/64 79/70/70 80/69/69
f 5/60/60 41/71/71 72/63/63
f 38/59/59 72/63/63 73/67/67
f 36/57/57 37/58/58 73/67/67
f 6/56/56 36/57/57 74/66/66
f 42/72/72 74/66/66 77/73/73
f 77/73/73 80/69/69 44/74/74
f 80/69/69 14/76/12 2/75/14
f 79/70/70 13/77/13 14/76/12
f 79/70/70 78/68/68 12/78/11
f 78/68/68 39/80/75 1/79/9
f 75/65/65 40/81/76 39/80/75
f 41/71/71 40/81/76 75/65/65
f 81/82/77 84/84/79 85/83/78
f 83/85/80 82/86/81 85/83/78
f 85/83/78 84/84/79 87/87/82
f 85/83/78 88/89/84 89/88/83
f 3/90/22 9/91/23 81/82/77
f 23/92/33 81/82/77 82/86/81
f 21/93/42 22/94/43 82/86/81
f 7/41/41 21/93/42 83/85/80
f 32/52/52 83/85/80 86/95/85
f 86/95/85 89/88/83 30/61/61
f 89/88/83 41/96/71 5/60/60
f 88/89/84 40/97/76 41/96/71
f 88/89/84 87/87/82 39/98/75
f 87/87/82 11/100/10 1/99/9
f 84/84/79 10/101/24 11/100/10
f 9/91/23 10/101/24 84/84/79
f 90/102/86 93/104/88 94/103/87
f 92/105/89 91/106/90 94/103/87
f 94/103/87 93/104/88 96/107/91
f 94/103/87 97/109/93 98/108/92
f 8/37/37 33/53/53 90/102/86
f 26/110/36 90/102/86 91/106/90
f 24/111/34 25/112/94 91/106/90
f 4/113/18 24/111/34 92/105/89
f 17/114/17 92/105/89 95/115/95
f 95/115/95 98/108/92 15/116/15
f 98/108/92 44/118/74 2/117/14
f 97/109/93 43/119/96 44/118/74
f 97/109/93 96/107/91 42/120/72
f 96/107/91 35/55/55 6/56/56
f 93/104/88 34/121/97 35/55/55
f 33/53/53 34/121/97 93/104/88
f 107/122/98 122/124/100 117/123/99
f 123/125/45 118/127/45 100/126/45
f 111/128/101 116/130/103 108/129/102
f 113/131/104 129/133/106 125/132/105
f 125/132/107 131/135/109 119/134/108
f 118/127/110 121/137/112 110/136/111
f 112/138/113 100/126/113 110/136/114
f 128/139/115 127/140/116 108/129/102
f 130/141/117 122/124/100 107/122/98
f 109/142/118 124/143/120 128/139/119
f 107/122/121 102/144/122 112/138/122
f 104/145/123 126/146/125 129/133/124
f 109/142/118 116/130/127 111/128/126
f 102/147/45 117/148/45 123/125/45
f 101/149/45 111/150/45 123/125/45
f 130/141/128 124/143/130 109/142/129
f 118/127/131 99/152/131 108/151/132
f 131/135/133 127/154/135 105/153/134
f 123/125/45 111/150/45 99/152/45
f 109/142/129 101/155/136 117/123/136
f 108/151/132 127/154/135 131/135/133
f 120/156/137 103/157/137 124/143/130
f 107/122/121 115/158/138 129/133/124
f 124/143/120 103/157/139 114/159/139
f 104/145/140 120/156/140 130/141/117
f 128/139/115 114/159/141 105/160/141
f 110/136/111 121/137/112 131/135/109
f 129/133/106 115/158/142 110/136/114
f 120/161/2 119/134/2 114/162/2
f 45/1/1 49/2/2 46/5/5
f 47/4/4 49/2/2 50/16/16
f 49/2/2 51/6/6 52/8/8
f 49/2/2 53/7/7 50/16/16
f 1/9/9 45/1/1 12/11/11
f 12/11/11 46/5/5 13/13/13
f 14/12/12 46/5/5 47/4/4
f 2/14/14 47/4/4 15/15/15
f 15/15/15 50/16/16 16/163/143
f 50/16/16 17/17/17 16/163/143
f 53/7/7 4/18/18 17/17/17
f 52/8/8 18/19/19 53/7/7
f 52/8/8 20/21/21 19/20/20
f 51/6/6 3/22/22 20/21/21
f 48/3/3 9/23/23 51/6/6
f 11/10/10 48/3/3 45/1/1
f 54/25/25 58/26/26 55/29/29
f 56/28/28 58/26/26 59/35/35
f 58/26/26 60/30/30 61/32/32
f 58/26/26 62/31/31 59/35/35
f 3/22/22 54/25/25 20/21/21
f 20/21/21 55/29/29 19/20/20
f 18/19/19 55/29/29 56/28/28
f 4/18/18 56/28/28 24/34/34
f 24/34/34 59/35/35 25/164/94
f 59/35/35 26/36/36 25/164/94
f 62/31/31 8/37/37 26/36/36
f 61/32/32 27/38/38 62/31/31
f 61/32/32 29/40/40 28/39/39
f 60/30/30 7/41/41 29/40/40
f 57/27/27 21/42/42 60/30/30
f 23/33/33 57/27/27 54/25/25
f 63/44/44 67/45/45 64/48/48
f 65/47/47 67/45/45 68/54/54
f 67/45/45 69/49/49 70/51/51
f 67/45/45 71/50/50 68/54/54
f 7/41/41 63/44/44 29/40/40
f 29/40/40 64/48/48 28/39/39
f 27/38/38 64/48/48 65/47/47
f 8/37/37 65/47/47 33/53/53
f 33/53/53 68/54/54 34/121/97
f 68/54/54 35/55/55 34/121/97
f 71/50/50 6/56/56 35/55/55
f 70/51/51 36/57/57 71/50/50
f 70/51/51 38/59/59 37/58/58
f 69/49/49 5/60/60 38/59/59
f 66/46/46 30/61/61 69/49/49
f 32/52/52 66/46/46 63/44/44
f 72/63/63 76/64/64 73/67/67
f 74/66/66 76/64/64 77/73/73
f 76/64/64 78/68/68 79/70/70
f 76/64/64 80/69/69 77/73/73
f 5/60/60 72/63/63 38/59/59
f 38/59/59 73/67/67 37/58/58
f 36/57/57 73/67/67 74/66/66
f 6/56/56 74/66/66 42/72/72
f 42/72/72 77/73/73 43/165/96
f 77/73/73 44/74/74 43/165/96
f 80/69/69 2/75/14 44/74/74
f 79/70/70 14/76/12 80/69/69
f 79/70/70 12/78/11 13/77/13
f 78/68/68 1/79/9 12/78/11
f 75/65/65 39/80/75 78/68/68
f 41/71/71 75/65/65 72/63/63
f 81/82/77 85/83/78 82/86/81
f 83/85/80 85/83/78 86/95/85
f 85/83/78 87/87/82 88/89/84
f 85/83/78 89/88/83 86/95/85
f 3/90/22 81/82/77 23/92/33
f 23/92/33 82/86/81 22/94/43
f 21/93/42 82/86/81 83/85/80
f 7/41/41 83/85/80 32/52/52
f 32/52/52 86/95/85 31/62/62
f 86/95/85 30/61/61 31/62/62
f 89/88/83 5/60/60 30/61/61
f 88/89/84 41/96/71 89/88/83
f 88/89/84 39/98/75 40/97/76
f 87/87/82 1/99/9 39/98/75
f 84/84/79 11/100/10 87/87/82
f 9/91/23 84/84/79 81/82/77
f 90/102/86 94/103/87 91/106/90
f 92/105/89 94/103/87 95/115/95
f 94/103/87 96/107/91 97/109/93
f 94/103/87 98/108/92 95/115/95
f 8/37/37 90/102/86 26/110/36
f 26/110/36 91/106/90 25/112/94
f 24/111/34 91/106/90 92/105/89
f 4/113/18 92/105/89 17/114/17
f 17/114/17 95/115/95 16/166/143
f 95/115/95 15/116/15 16/166/143
f 98/108/92 2/117/14 15/116/15
f 97/109/93 44/118/74 98/108/92
f 97/109/93 42/120/72 43/119/96
f 96/107/91 6/56/56 42/120/72
f 93/104/88 35/55/55 96/107/91
f 33/53/53 93/104/88 90/102/86
f 107/122/98 117/123/99 102/144/99
f 123/125/45 100/126/45 112/167/45
f 111/128/101 108/129/102 99/168/101
f 113/131/104 125/132/105 106/169/104
f 125/132/107 119/134/108 106/169/108
f 118/127/110 110/136/111 100/126/110
f 112/138/113 110/136/114 115/158/142
f 128/139/115 108/129/102 116/130/103
f 130/141/117 107/122/98 126/146/144
f 109/142/118 128/139/119 116/130/127
f 107/122/121 112/138/122 115/158/138
f 104/145/123 129/133/124 113/131/123
f 109/142/118 111/128/126 101/155/126
f 102/147/45 123/125/45 112/167/45
f 101/149/45 123/125/45 117/148/45
f 130/141/128 109/142/129 122/124/145
f 118/127/131 108/151/132 121/137/146
f 131/135/133 105/153/134 119/134/134
f 123/125/45 99/152/45 118/127/45
f 109/142/129 117/123/136 122/124/145
f 108/151/132 131/135/133 121/137/146
f 120/156/137 124/143/130 130/141/128
f 107/122/121 129/133/124 126/146/125
f 124/143/120 114/159/139 128/139/119
f 104/145/140 130/141/117 126/146/144
f 128/139/115 105/160/141 127/140/116
f 110/136/111 131/135/109 125/132/107
f 129/133/106 110/136/114 125/132/105
f 119/134/2 113/170/2 106/169/2
f 113/170/2 120/161/2 104/171/2
f 120/161/2 114/162/2 103/172/2
f 114/162/2 119/134/2 105/153/2
f 119/134/2 120/161/2 113/170/2
