# Blender 4.4.1
# www.blender.org
mtllib ArmR_01.mtl
o ArmR01
v 0.016341 0.000000 -0.093611
v 0.016341 -0.050793 -0.081069
v 0.016341 -0.087976 -0.046805
v 0.016341 -0.101586 -0.000000
v 0.016341 -0.087976 0.046805
v 0.016341 -0.050793 0.081069
v 0.016341 0.000000 0.093611
v 0.016341 0.050793 0.081069
v 0.016341 0.087976 0.046805
v 0.016341 0.101586 -0.000000
v 0.016341 0.087976 -0.046805
v 0.016341 0.050793 -0.081069
v -0.482747 0.000000 -0.092556
v -0.482747 -0.051756 -0.080156
v -0.482747 -0.089643 -0.046278
v -0.482747 -0.103511 -0.000000
v -0.482747 -0.089643 0.046278
v -0.482747 -0.051756 0.080156
v -0.482747 0.000000 0.092556
v -0.482747 0.051756 0.080156
v -0.482747 0.089643 0.046278
v -0.482747 0.103511 -0.000000
v -0.482747 0.089643 -0.046278
v -0.482747 0.051756 -0.080156
v -0.229883 -0.099458 -0.156844
v -0.229883 -0.172266 -0.090554
v -0.229883 -0.198915 -0.000000
v -0.229883 -0.172266 0.090554
v -0.229883 -0.099458 0.156844
v -0.229883 0.000000 0.181107
v -0.229883 0.099458 0.156844
v -0.229883 0.172266 0.090554
v -0.229883 0.198915 -0.000000
v -0.229883 0.172266 -0.090554
v -0.229883 0.099458 -0.156844
v -0.229883 0.000000 -0.181107
v -0.106771 -0.081095 -0.129149
v -0.106771 -0.140460 -0.074564
v -0.106771 -0.162190 -0.000000
v -0.106771 -0.140460 0.074564
v -0.106771 -0.081095 0.129149
v -0.106771 0.000000 0.149128
v -0.106771 0.081095 0.129149
v -0.106771 0.140460 0.074564
v -0.106771 0.162190 -0.000000
v -0.106771 0.140460 -0.074564
v -0.106771 0.081095 -0.129149
v -0.106771 0.000000 -0.149128
v -0.356315 0.000000 -0.148556
v -0.356315 -0.081614 -0.128653
v -0.356315 -0.141360 -0.074278
v -0.356315 -0.163229 -0.000000
v -0.356315 -0.141360 0.074278
v -0.356315 -0.081614 0.128653
v -0.356315 0.000000 0.148556
v -0.356315 0.081614 0.128653
v -0.356315 0.141360 0.074278
v -0.356315 0.163229 -0.000000
v -0.356315 0.141360 -0.074278
v -0.356315 0.081614 -0.128653
v -0.168327 0.000000 -0.169909
v -0.168327 -0.092087 -0.147145
v -0.168327 -0.159500 -0.084954
v -0.168327 -0.184175 -0.000000
v -0.168327 -0.159500 0.084954
v -0.168327 -0.092087 0.147145
v -0.168327 0.000000 0.169909
v -0.168327 0.092087 0.147145
v -0.168327 0.159500 0.084954
v -0.168327 0.184175 -0.000000
v -0.168327 0.159500 -0.084954
v -0.168327 0.092087 -0.147145
v -0.293099 -0.092352 -0.146890
v -0.293099 -0.159959 -0.084807
v -0.293099 -0.184705 -0.000000
v -0.293099 -0.159959 0.084807
v -0.293099 -0.092352 0.146890
v -0.293099 0.000000 0.169614
v -0.293099 0.092352 0.146890
v -0.293099 0.159959 0.084807
v -0.293099 0.184705 -0.000000
v -0.293099 0.159959 -0.084807
v -0.293099 0.092352 -0.146890
v -0.293099 0.000000 -0.169614
vn 1.0000 -0.0000 -0.0000
vn -0.4105 0.4197 -0.8096
vn -0.3580 -0.0000 -0.9337
vn -0.3612 0.4382 -0.8231
vn -0.4223 0.7630 -0.4893
vn -0.3682 0.7885 -0.4925
vn -0.4286 0.9035 -0.0000
vn -0.3721 0.9282 -0.0000
vn -0.3682 0.7885 0.4925
vn -0.3612 0.4382 0.8231
vn -0.4223 0.7630 0.4893
vn -0.3580 -0.0000 0.9337
vn -0.4105 0.4197 0.8096
vn -0.4105 -0.4197 0.8096
vn -0.3612 -0.4382 0.8231
vn -0.4223 -0.7630 0.4893
vn -0.3682 -0.7885 0.4925
vn -0.4286 -0.9035 -0.0000
vn -0.3721 -0.9282 -0.0000
vn -0.3682 -0.7885 -0.4925
vn -0.3612 -0.4382 -0.8231
vn -0.4223 -0.7630 -0.4893
vn -0.4105 -0.4197 -0.8096
vn 0.0004 -0.0000 -1.0000
vn 0.2550 -0.4564 -0.8525
vn 0.2472 -0.0000 -0.9690
vn 0.0020 -0.4748 -0.8801
vn 0.2720 -0.8168 -0.5088
vn 0.0064 -0.9598 -0.2806
vn 0.2710 -0.9241 -0.2696
vn 0.2710 -0.9241 0.2696
vn 0.0064 -0.9598 0.2806
vn 0.2720 -0.8168 0.5088
vn 0.0020 -0.4748 0.8801
vn 0.2550 -0.4564 0.8525
vn 0.0004 -0.0000 1.0000
vn 0.2472 -0.0000 0.9690
vn 0.2550 0.4564 0.8525
vn 0.0020 0.4748 0.8801
vn 0.2720 0.8168 0.5088
vn 0.0064 0.9598 0.2806
vn 0.2710 0.9241 0.2696
vn 0.2710 0.9241 -0.2696
vn 0.0064 0.9598 -0.2806
vn 0.2720 0.8168 -0.5088
vn 0.0020 0.4748 -0.8801
vn 0.2550 0.4564 -0.8525
vn 0.4181 0.4260 -0.8023
vn 0.3634 -0.0000 -0.9316
vn 0.4111 -0.0000 -0.9116
vn 0.4332 0.7634 -0.4791
vn 0.3689 0.4399 -0.8188
vn 0.4415 0.8973 -0.0000
vn 0.3803 0.7861 -0.4873
vn 0.3803 0.7861 0.4873
vn 0.4332 0.7634 0.4791
vn 0.3689 0.4399 0.8188
vn 0.4181 0.4260 0.8023
vn 0.3634 -0.0000 0.9316
vn 0.4111 -0.0000 0.9116
vn 0.4181 -0.4260 0.8023
vn 0.4332 -0.7634 0.4791
vn 0.3689 -0.4399 0.8188
vn 0.4415 -0.8973 -0.0000
vn 0.3803 -0.7861 0.4873
vn 0.3803 -0.7861 -0.4873
vn 0.4332 -0.7634 -0.4791
vn 0.3689 -0.4399 -0.8188
vn 0.4181 -0.4260 -0.8023
vn -0.2450 -0.0000 -0.9695
vn -0.2500 -0.4556 -0.8544
vn -0.2613 -0.8186 -0.5114
vn -0.2577 -0.9273 -0.2713
vn -0.2613 -0.8186 0.5114
vn -0.2577 -0.9273 0.2713
vn -0.2500 -0.4556 0.8544
vn -0.2450 -0.0000 0.9695
vn -0.2500 0.4556 0.8544
vn -0.2613 0.8186 0.5114
vn -0.2577 0.9273 0.2713
vn -0.2613 0.8186 -0.5114
vn -0.2577 0.9273 -0.2713
vn -0.2500 0.4556 -0.8544
vn 0.3863 0.9224 -0.0000
vn 0.3863 -0.9224 -0.0000
vn 0.0035 0.6732 -0.7394
vn 0.0064 0.9593 -0.2823
vn 0.0064 0.9593 0.2823
vn 0.0035 0.6732 0.7394
vn 0.0035 -0.6732 0.7394
vn 0.0064 -0.9593 0.2823
vn 0.0064 -0.9593 -0.2823
vn 0.0035 -0.6732 -0.7394
vn -1.0000 -0.0000 -0.0000
vn -0.4050 -0.0000 -0.9143
vn -0.4050 -0.0000 0.9143
vt 0.285179 0.591581
vt 0.318996 0.501961
vt 0.378399 0.569548
vt 0.623822 0.612772
vt 0.559284 0.667291
vt 0.553487 0.624236
vt 0.621037 0.585086
vt 0.552449 0.588004
vt 0.621678 0.558710
vt 0.553990 0.556482
vt 0.557049 0.526834
vt 0.561400 0.497255
vt 0.622600 0.532628
vt 0.566425 0.467119
vt 0.625121 0.505682
vt 0.634804 0.451097
vt 0.572072 0.437093
vt 0.641705 0.424927
vt 0.578159 0.407822
vt 0.649811 0.400118
vt 0.585483 0.378929
vt 0.594878 0.348798
vt 0.608314 0.315133
vt 0.658282 0.375130
vt 0.628566 0.276696
vt 0.670419 0.350089
vt 0.560386 0.246838
vt 0.524207 0.294643
vt 0.524291 0.246136
vt 0.551617 0.298506
vt 0.521691 0.332856
vt 0.545048 0.336859
vt 0.518164 0.365333
vt 0.534357 0.397993
vt 0.513929 0.395404
vt 0.528993 0.428145
vt 0.508987 0.425414
vt 0.523420 0.459491
vt 0.503606 0.455977
vt 0.498148 0.486526
vt 0.517873 0.490841
vt 0.492468 0.516404
vt 0.512541 0.520998
vt 0.486104 0.546097
vt 0.501555 0.582078
vt 0.478247 0.577805
vt 0.494533 0.620349
vt 0.467468 0.614550
vt 0.484998 0.671878
vt 0.450866 0.660124
vt 0.418835 0.642033
vt 0.361821 0.593385
vt 0.390474 0.544513
vt 0.439265 0.603895
vt 0.399014 0.519143
vt 0.452859 0.570325
vt 0.469786 0.511131
vt 0.407366 0.494005
vt 0.475891 0.481907
vt 0.414434 0.467904
vt 0.481518 0.452059
vt 0.420899 0.441308
vt 0.423974 0.414111
vt 0.426312 0.387171
vt 0.486499 0.422097
vt 0.427114 0.360693
vt 0.490817 0.392555
vt 0.495279 0.331148
vt 0.427819 0.333933
vt 0.494059 0.294949
vt 0.425089 0.306270
vt 0.487990 0.252108
vt 0.417719 0.278184
vt 0.595579 0.258477
vt 0.579402 0.304308
vt 0.568928 0.341178
vt 0.561252 0.372892
vt 0.554947 0.402563
vt 0.549249 0.432467
vt 0.543766 0.463100
vt 0.538380 0.493750
vt 0.533445 0.523788
vt 0.529161 0.553817
vt 0.525462 0.586235
vt 0.522617 0.624457
vt 0.522045 0.673053
vt 0.462382 0.540111
vt 0.493830 0.362796
vt 0.507320 0.550282
vt 0.539527 0.368700
vt 0.675754 0.561489
vt 0.722233 0.649058
vt 0.631183 0.641266
vt 0.336053 0.606766
vt 0.308000 0.606106
vt 0.273704 0.567084
vt 0.276651 0.539179
vt 0.293229 0.515342
vt 0.347049 0.502621
vt 0.369870 0.517146
vt 0.381345 0.541643
vt 0.628347 0.478103
vt 0.687131 0.325864
vt 0.630547 0.585484
vt 0.649555 0.566713
vt 0.702123 0.571212
vt 0.721597 0.593276
vt 0.728958 0.621770
vt 0.703225 0.667829
vt 0.677026 0.673053
vt 0.650657 0.663330
s 1
usemtl マテリアル
f 4/1/1 12/3/1 8/2/1
f 24/4/2 60/6/4 49/5/3
f 23/7/5 59/8/6 60/6/4
f 22/9/7 58/10/8 59/8/6
f 57/11/9 58/10/8 22/9/7
f 56/12/10 57/11/9 21/13/11
f 55/14/12 56/12/10 20/15/13
f 18/16/14 54/17/15 55/14/12
f 17/18/16 53/19/17 54/17/15
f 16/20/18 52/21/19 53/19/17
f 51/22/20 52/21/19 16/20/18
f 50/23/21 51/22/20 15/24/22
f 49/25/3 50/23/21 14/26/23
f 36/27/24 61/29/26 62/28/25
f 25/30/27 62/28/25 63/31/28
f 26/32/29 63/31/28 64/33/30
f 64/33/31 65/35/33 28/34/32
f 65/35/33 66/37/35 29/36/34
f 66/37/35 67/39/37 30/38/36
f 30/38/36 67/39/37 68/40/38
f 31/41/39 68/40/38 69/42/40
f 32/43/41 69/42/40 70/44/42
f 70/44/43 71/46/45 34/45/44
f 71/46/45 72/48/47 35/47/46
f 72/48/47 61/50/26 36/49/24
f 12/3/48 1/52/50 48/51/49
f 11/53/51 12/3/48 47/54/52
f 10/55/53 11/53/51 46/56/54
f 44/57/55 9/58/56 10/55/53
f 43/59/57 8/60/58 9/58/56
f 42/61/59 7/62/60 8/60/58
f 6/63/61 7/62/60 42/61/59
f 5/64/62 6/63/61 41/65/63
f 4/66/64 5/64/62 40/67/65
f 38/68/66 3/69/67 4/66/64
f 37/70/68 2/71/69 3/69/67
f 48/72/49 1/73/50 2/71/69
f 84/74/70 73/75/71 50/23/21
f 73/75/71 74/76/72 51/22/20
f 74/76/72 75/77/73 52/21/19
f 52/21/19 75/77/75 76/78/74
f 53/19/17 76/78/74 77/79/76
f 54/17/15 77/79/76 78/80/77
f 78/80/77 79/81/78 56/12/10
f 79/81/78 80/82/79 57/11/9
f 80/82/79 81/83/80 58/10/8
f 58/10/8 81/83/82 82/84/81
f 59/8/6 82/84/81 83/85/83
f 60/6/4 83/85/83 84/86/70
f 47/54/52 48/51/49 61/50/26
f 46/56/54 47/54/52 72/48/47
f 45/87/84 46/56/54 71/46/45
f 69/42/40 44/57/55 45/87/84
f 68/40/38 43/59/57 44/57/55
f 67/39/37 42/61/59 43/59/57
f 41/65/63 42/61/59 67/39/37
f 40/67/65 41/65/63 66/37/35
f 39/88/85 40/67/65 65/35/33
f 63/31/28 38/68/66 39/88/85
f 62/28/25 37/70/68 38/68/66
f 61/29/26 48/72/49 37/70/68
f 83/85/83 35/47/46 36/49/24
f 82/84/81 34/45/86 35/47/46
f 81/83/82 33/89/87 34/45/44
f 32/43/41 33/89/88 81/83/80
f 31/41/39 32/43/89 80/82/79
f 30/38/36 31/41/39 79/81/78
f 77/79/76 29/36/34 30/38/36
f 76/78/74 28/34/90 29/36/34
f 75/77/75 27/90/91 28/34/32
f 26/32/29 27/90/92 75/77/73
f 25/30/27 26/32/93 74/76/72
f 36/27/24 25/30/27 73/75/71
f 21/91/94 13/93/94 17/92/94
f 12/3/1 2/94/1 1/52/1
f 2/94/1 4/1/1 3/95/1
f 4/1/1 6/97/1 5/96/1
f 6/97/1 8/2/1 7/98/1
f 8/2/1 10/100/1 9/99/1
f 10/100/1 12/3/1 11/101/1
f 12/3/1 4/1/1 2/94/1
f 4/1/1 8/2/1 6/97/1
f 8/2/1 12/3/1 10/100/1
f 24/4/2 49/5/3 13/93/95
f 23/7/5 60/6/4 24/4/2
f 22/9/7 59/8/6 23/7/5
f 57/11/9 22/9/7 21/13/11
f 56/12/10 21/13/11 20/15/13
f 55/14/12 20/15/13 19/102/96
f 18/16/14 55/14/12 19/102/96
f 17/18/16 54/17/15 18/16/14
f 16/20/18 53/19/17 17/18/16
f 51/22/20 16/20/18 15/24/22
f 50/23/21 15/24/22 14/26/23
f 49/25/3 14/26/23 13/103/95
f 36/27/24 62/28/25 25/30/27
f 25/30/27 63/31/28 26/32/93
f 26/32/29 64/33/30 27/90/92
f 64/33/31 28/34/32 27/90/91
f 65/35/33 29/36/34 28/34/90
f 66/37/35 30/38/36 29/36/34
f 30/38/36 68/40/38 31/41/39
f 31/41/39 69/42/40 32/43/89
f 32/43/41 70/44/42 33/89/88
f 70/44/43 34/45/44 33/89/87
f 71/46/45 35/47/46 34/45/86
f 72/48/47 36/49/24 35/47/46
f 12/3/48 48/51/49 47/54/52
f 11/53/51 47/54/52 46/56/54
f 10/55/53 46/56/54 45/87/84
f 44/57/55 10/55/53 45/87/84
f 43/59/57 9/58/56 44/57/55
f 42/61/59 8/60/58 43/59/57
f 6/63/61 42/61/59 41/65/63
f 5/64/62 41/65/63 40/67/65
f 4/66/64 40/67/65 39/88/85
f 38/68/66 4/66/64 39/88/85
f 37/70/68 3/69/67 38/68/66
f 48/72/49 2/71/69 37/70/68
f 84/74/70 50/23/21 49/25/3
f 73/75/71 51/22/20 50/23/21
f 74/76/72 52/21/19 51/22/20
f 52/21/19 76/78/74 53/19/17
f 53/19/17 77/79/76 54/17/15
f 54/17/15 78/80/77 55/14/12
f 78/80/77 56/12/10 55/14/12
f 79/81/78 57/11/9 56/12/10
f 80/82/79 58/10/8 57/11/9
f 58/10/8 82/84/81 59/8/6
f 59/8/6 83/85/83 60/6/4
f 60/6/4 84/86/70 49/5/3
f 47/54/52 61/50/26 72/48/47
f 46/56/54 72/48/47 71/46/45
f 45/87/84 71/46/45 70/44/43
f 69/42/40 45/87/84 70/44/42
f 68/40/38 44/57/55 69/42/40
f 67/39/37 43/59/57 68/40/38
f 41/65/63 67/39/37 66/37/35
f 40/67/65 66/37/35 65/35/33
f 39/88/85 65/35/33 64/33/31
f 63/31/28 39/88/85 64/33/30
f 62/28/25 38/68/66 63/31/28
f 61/29/26 37/70/68 62/28/25
f 83/85/83 36/49/24 84/86/70
f 82/84/81 35/47/46 83/85/83
f 81/83/82 34/45/44 82/84/81
f 32/43/41 81/83/80 80/82/79
f 31/41/39 80/82/79 79/81/78
f 30/38/36 79/81/78 78/80/77
f 77/79/76 30/38/36 78/80/77
f 76/78/74 29/36/34 77/79/76
f 75/77/75 28/34/32 76/78/74
f 26/32/29 75/77/73 74/76/72
f 25/30/27 74/76/72 73/75/71
f 36/27/24 73/75/71 84/74/70
f 13/93/94 23/104/94 24/4/94
f 23/104/94 21/91/94 22/105/94
f 21/91/94 19/107/94 20/106/94
f 19/107/94 17/92/94 18/108/94
f 17/92/94 15/110/94 16/109/94
f 15/110/94 13/93/94 14/111/94
f 13/93/94 21/91/94 23/104/94
f 21/91/94 17/92/94 19/107/94
f 17/92/94 13/93/94 15/110/94
