# Blender 4.4.1
# www.blender.org
mtllib Body.mtl
o Body
v 0.000000 -0.500000 -0.122449
v -0.000000 0.545166 -0.071068
v 0.059714 -0.500000 -0.106044
v 0.031349 0.545166 -0.061547
v 0.103427 -0.500000 -0.061224
v 0.054298 0.545166 -0.035534
v 0.119428 -0.500000 -0.000000
v 0.062697 0.545166 -0.000000
v 0.103427 -0.500000 0.061224
v 0.054298 0.545166 0.035534
v 0.059714 -0.500000 0.106044
v 0.031349 0.545166 0.061547
v 0.000000 -0.500000 0.122449
v -0.000000 0.545166 0.071068
v -0.059714 -0.500000 0.106044
v -0.031349 0.545166 0.061547
v -0.103427 -0.500000 0.061224
v -0.054298 0.545166 0.035534
v -0.119428 -0.500000 -0.000000
v -0.062697 0.545166 -0.000000
v -0.103427 -0.500000 -0.061224
v -0.054298 0.545166 -0.035534
v -0.059714 -0.500000 -0.106044
v -0.031349 0.545166 -0.061547
v -0.000000 0.152373 -0.094858
v 0.045694 0.152373 -0.082150
v 0.079144 0.152373 -0.047429
v 0.091388 0.152373 0.000000
v 0.079144 0.152373 0.047429
v 0.045694 0.152373 0.082150
v -0.000000 0.152373 0.094858
v -0.045694 0.152373 0.082150
v -0.079144 0.152373 0.047429
v -0.091388 0.152373 0.000000
v -0.079144 0.152373 -0.047429
v -0.045694 0.152373 -0.082150
v -0.000000 0.284423 -0.118378
v 0.056886 0.284423 -0.102519
v 0.098529 0.284423 -0.059189
v 0.113772 0.284423 -0.000000
v 0.098529 0.284423 0.059189
v 0.056886 0.284423 0.102519
v -0.000000 0.284423 0.118378
v -0.056886 0.284423 0.102519
v -0.098529 0.284423 0.059189
v -0.113772 0.284423 -0.000000
v -0.098529 0.284423 -0.059189
v -0.056886 0.284423 -0.102519
v 0.075000 0.071563 -0.129904
v 0.129904 0.071563 -0.075000
v 0.150000 0.071563 0.000000
v 0.129904 0.071563 0.075000
v 0.075000 0.071563 0.129904
v 0.000000 0.071563 0.150000
v -0.075000 0.071563 0.129904
v -0.129904 0.071563 0.075000
v -0.150000 0.071563 0.000000
v -0.129904 0.071563 -0.075000
v -0.075000 0.071563 -0.129904
v 0.000000 0.071563 -0.150000
v -0.000000 0.458659 -0.118378
v 0.056886 0.458659 -0.102519
v 0.098529 0.458659 -0.059189
v 0.113772 0.458659 -0.000000
v 0.098529 0.458659 0.059189
v 0.056886 0.458659 0.102519
v -0.000000 0.458659 0.118378
v -0.056886 0.458659 0.102519
v -0.098529 0.458659 0.059189
v -0.113772 0.458659 -0.000000
v -0.098529 0.458659 -0.059189
v -0.056886 0.458659 -0.102519
v 0.045694 0.221907 -0.082150
v 0.079144 0.221907 -0.047429
v 0.091388 0.221907 0.000000
v 0.079144 0.221907 0.047429
v 0.045694 0.221907 0.082150
v -0.000000 0.221907 0.094858
v -0.045694 0.221907 0.082150
v -0.079144 0.221907 0.047429
v -0.091388 0.221907 0.000000
v -0.079144 0.221907 -0.047429
v -0.045694 0.221907 -0.082150
v -0.000000 0.221907 -0.094858
v 0.075000 -0.473103 -0.129904
v 0.129904 -0.473103 -0.075000
v 0.150000 -0.473103 0.000000
v 0.129904 -0.473103 0.075000
v 0.075000 -0.473103 0.129904
v 0.000000 -0.473103 0.150000
v -0.075000 -0.473103 0.129904
v -0.129904 -0.473103 0.075000
v -0.150000 -0.473103 0.000000
v -0.129904 -0.473103 -0.075000
v -0.075000 -0.473103 -0.129904
v 0.000000 -0.473103 -0.150000
v -0.000000 0.526261 -0.090654
v 0.043853 0.526261 -0.078509
v 0.075955 0.526261 -0.045327
v 0.087705 0.526261 -0.000000
v 0.075955 0.526261 0.045327
v 0.043853 0.526261 0.078509
v -0.000000 0.526261 0.090654
v -0.043853 0.526261 0.078509
v -0.075955 0.526261 0.045327
v -0.087705 0.526261 -0.000000
v -0.075955 0.526261 -0.045327
v -0.043853 0.526261 -0.078509
vn -0.0000 0.5489 -0.8359
vn 0.3521 0.7399 -0.5733
vn 0.4306 0.5594 -0.7083
vn 0.5519 0.7764 -0.3044
vn 0.7161 0.5753 -0.3951
vn 0.6089 0.7933 -0.0000
vn 0.6030 0.7977 -0.0000
vn 0.7161 0.5753 0.3951
vn 0.5519 0.7764 0.3044
vn 0.4306 0.5594 0.7083
vn 0.3521 0.7399 0.5733
vn -0.0000 0.5489 0.8359
vn -0.3521 0.7399 0.5733
vn -0.4306 0.5594 0.7083
vn -0.5519 0.7764 0.3044
vn -0.7161 0.5753 0.3951
vn -0.6089 0.7933 -0.0000
vn -0.6030 0.7977 -0.0000
vn -0.7161 0.5753 -0.3951
vn -0.0000 1.0000 -0.0000
vn -0.5519 0.7764 -0.3044
vn -0.4306 0.5594 -0.7083
vn -0.3521 0.7399 -0.5733
vn -0.0000 -1.0000 -0.0000
vn -0.4187 0.5682 -0.7084
vn -0.0000 0.5659 -0.8245
vn -0.4134 0.5719 -0.7085
vn -0.7096 0.5785 -0.4022
vn -0.7053 0.5825 -0.4041
vn -0.8115 0.5843 -0.0000
vn -0.8095 0.5871 -0.0000
vn -0.7053 0.5825 0.4041
vn -0.4134 0.5719 0.7085
vn -0.7096 0.5785 0.4022
vn -0.0000 0.5659 0.8245
vn -0.4187 0.5682 0.7084
vn 0.4187 0.5682 0.7084
vn 0.4134 0.5719 0.7085
vn 0.7096 0.5785 0.4022
vn 0.7053 0.5825 0.4041
vn 0.8115 0.5843 -0.0000
vn 0.8095 0.5871 -0.0000
vn 0.7053 0.5825 -0.4041
vn 0.4134 0.5719 -0.7085
vn 0.7096 0.5785 -0.4022
vn 0.4187 0.5682 -0.7084
vn -0.5044 -0.1720 -0.8461
vn -0.0000 -0.1844 -0.9828
vn -0.5046 -0.1822 -0.8439
vn -0.8604 -0.1685 -0.4810
vn -0.8595 -0.1779 -0.4791
vn -0.9860 -0.1668 -0.0000
vn -0.9844 -0.1758 -0.0000
vn -0.8595 -0.1779 0.4791
vn -0.5046 -0.1822 0.8439
vn -0.8604 -0.1685 0.4810
vn -0.0000 -0.1844 0.9828
vn -0.5044 -0.1720 0.8461
vn 0.5044 -0.1720 0.8461
vn 0.5046 -0.1822 0.8439
vn 0.8604 -0.1685 0.4810
vn 0.8595 -0.1779 0.4791
vn 0.9860 -0.1668 -0.0000
vn 0.9844 -0.1758 -0.0000
vn 0.8595 -0.1779 -0.4791
vn 0.5046 -0.1822 -0.8439
vn 0.8604 -0.1685 -0.4810
vn 0.5044 -0.1720 -0.8461
vn 0.2588 -0.0000 -0.9659
vn 0.5000 -0.0000 -0.8660
vn 0.8660 -0.0000 -0.5000
vn 0.9659 -0.0000 -0.2588
vn 0.9659 -0.0000 0.2588
vn 0.8660 -0.0000 0.5000
vn 0.5000 -0.0000 0.8660
vn 0.2588 -0.0000 0.9659
vn -0.2588 -0.0000 0.9659
vn -0.5000 -0.0000 0.8660
vn -0.8660 -0.0000 0.5000
vn -0.9659 -0.0000 0.2588
vn -0.9659 -0.0000 -0.2588
vn -0.8660 -0.0000 -0.5000
vn -0.5000 -0.0000 -0.8660
vn -0.2588 -0.0000 -0.9659
vn -0.5030 0.1851 -0.8442
vn -0.0000 -0.1738 -0.9848
vn -0.8583 0.1806 -0.4803
vn -0.9840 0.1782 -0.0000
vn -0.8583 0.1806 0.4803
vn -0.5030 0.1851 0.8442
vn -0.0000 0.1874 0.9823
vn -0.0000 -0.1738 0.9848
vn 0.5030 0.1851 0.8442
vn 0.8583 0.1806 0.4803
vn 0.9840 0.1782 -0.0000
vn 0.8583 0.1806 -0.4803
vn 0.5030 0.1851 -0.8442
vn -0.0000 0.1874 -0.9823
vn 0.2680 -0.0000 -0.9634
vn 0.8729 -0.0000 -0.4879
vn 0.7202 -0.0000 -0.6938
vn 1.0000 -0.0000 -0.0000
vn 0.8729 -0.0000 0.4879
vn 0.7202 -0.0000 0.6938
vn 0.2680 -0.0000 0.9634
vn -0.2680 -0.0000 0.9634
vn -0.8729 -0.0000 0.4879
vn -0.7202 -0.0000 0.6938
vn -1.0000 -0.0000 -0.0000
vn -0.8729 -0.0000 -0.4879
vn -0.7202 -0.0000 -0.6938
vn -0.2680 -0.0000 -0.9634
vn -0.3456 -0.7241 -0.5969
vn -0.0000 -0.7174 -0.6967
vn -0.0000 -0.7155 -0.6986
vn -0.5813 -0.7409 -0.3365
vn -0.3482 -0.7268 -0.5920
vn -0.6623 -0.7492 -0.0000
vn -0.5813 -0.7435 -0.3308
vn -0.5813 -0.7435 0.3308
vn -0.5813 -0.7409 0.3365
vn -0.3482 -0.7268 0.5920
vn -0.3456 -0.7241 0.5969
vn -0.0000 -0.7174 0.6967
vn -0.0000 -0.7155 0.6986
vn 0.3456 -0.7241 0.5969
vn 0.5813 -0.7409 0.3365
vn 0.3482 -0.7268 0.5920
vn 0.6623 -0.7492 -0.0000
vn 0.5813 -0.7435 0.3308
vn 0.5813 -0.7435 -0.3308
vn 0.5813 -0.7409 -0.3365
vn 0.3482 -0.7268 -0.5920
vn 0.3456 -0.7241 -0.5969
vn -0.0000 0.7195 -0.6945
vn -0.0000 0.7195 0.6945
vn -0.0000 0.5636 -0.8260
vn -0.0000 0.5636 0.8260
vn -0.6605 -0.7508 -0.0000
vn 0.6605 -0.7508 -0.0000
vn -0.9330 0.3598 -0.0000
vn 0.9330 0.3598 -0.0000
vt 0.864680 0.396420
vt 0.844106 0.392904
vt 0.850421 0.381961
vt 0.828995 0.383239
vt 0.833361 0.370408
vt 0.811305 0.375783
vt 0.814189 0.362093
vt 0.808358 0.374811
vt 0.793835 0.357362
vt 0.789705 0.370271
vt 0.773249 0.356490
vt 0.771809 0.369041
vt 0.753185 0.359619
vt 0.741572 0.376962
vt 0.734163 0.366728
vt 0.726577 0.386807
vt 0.716649 0.377581
vt 0.712545 0.399908
vt 0.701228 0.391683
vt 0.710454 0.402201
vt 0.688595 0.408329
vt 0.852289 0.432002
vt 0.798923 0.433608
vt 0.829005 0.389499
vt 0.698690 0.417371
vt 0.679389 0.426762
vt 0.690257 0.433204
vt 0.674050 0.446354
vt 0.347391 0.067928
vt 0.412241 0.001404
vt 0.436908 0.092782
vt 0.027989 0.410055
vt 0.000455 0.366751
vt 0.035106 0.366751
vt 0.062440 0.410473
vt 0.069757 0.366751
vt 0.097639 0.410785
vt 0.104409 0.366751
vt 0.139060 0.366751
vt 0.111179 0.410785
vt 0.173711 0.366751
vt 0.146378 0.410473
vt 0.208362 0.366751
vt 0.180828 0.410055
vt 0.235897 0.410055
vt 0.243014 0.366751
vt 0.270347 0.410473
vt 0.277665 0.366751
vt 0.305546 0.410785
vt 0.312316 0.366751
vt 0.346967 0.366751
vt 0.319086 0.410785
vt 0.381619 0.366751
vt 0.354285 0.410473
vt 0.416270 0.366751
vt 0.388736 0.410054
vt 0.030049 0.470767
vt 0.006661 0.440975
vt 0.027827 0.441085
vt 0.064029 0.471118
vt 0.040601 0.441277
vt 0.062115 0.441502
vt 0.099818 0.471356
vt 0.075616 0.441701
vt 0.097476 0.441816
vt 0.133201 0.441701
vt 0.108999 0.471356
vt 0.111341 0.441815
vt 0.168217 0.441277
vt 0.144789 0.471118
vt 0.146702 0.441502
vt 0.202156 0.440975
vt 0.178769 0.470767
vt 0.180990 0.441085
vt 0.237956 0.470767
vt 0.214569 0.440975
vt 0.235735 0.441085
vt 0.271936 0.471118
vt 0.248508 0.441277
vt 0.270023 0.441502
vt 0.307726 0.471356
vt 0.283524 0.441701
vt 0.305384 0.441815
vt 0.341109 0.441701
vt 0.316907 0.471356
vt 0.319249 0.441815
vt 0.376124 0.441277
vt 0.352696 0.471118
vt 0.354609 0.441502
vt 0.410063 0.440974
vt 0.386676 0.470767
vt 0.388898 0.441085
vt 0.381619 0.123681
vt 0.416270 0.123681
vt 0.346967 0.123681
vt 0.312316 0.123681
vt 0.277665 0.123681
vt 0.243014 0.123682
vt 0.208362 0.123681
vt 0.173711 0.123682
vt 0.139060 0.123681
vt 0.104409 0.123681
vt 0.069757 0.123682
vt 0.035106 0.123681
vt 0.000455 0.123682
vt 0.026828 0.078925
vt 0.000473 0.001168
vt 0.026828 0.001168
vt 0.053647 0.078925
vt 0.053647 0.001168
vt 0.080924 0.078925
vt 0.080924 0.001168
vt 0.108200 0.078925
vt 0.108200 0.001168
vt 0.135020 0.078925
vt 0.135020 0.001168
vt 0.161375 0.078925
vt 0.161375 0.001168
vt 0.187729 0.078925
vt 0.187729 0.001168
vt 0.214549 0.078925
vt 0.214549 0.001168
vt 0.241825 0.078925
vt 0.241825 0.001168
vt 0.269102 0.078925
vt 0.269102 0.001168
vt 0.295921 0.078925
vt 0.295921 0.001168
vt 0.322276 0.078925
vt 0.322276 0.001168
vt 0.409901 0.409944
vt 0.375800 0.410248
vt 0.340946 0.410670
vt 0.283686 0.410670
vt 0.248833 0.410248
vt 0.214731 0.409944
vt 0.201994 0.409944
vt 0.167892 0.410248
vt 0.133039 0.410670
vt 0.075779 0.410670
vt 0.040925 0.410248
vt 0.006823 0.409944
vt 0.031273 0.106673
vt 0.003637 0.106796
vt 0.065750 0.106205
vt 0.037811 0.106457
vt 0.100878 0.105856
vt 0.072637 0.105984
vt 0.107940 0.105856
vt 0.136180 0.105984
vt 0.143068 0.106205
vt 0.171007 0.106457
vt 0.177545 0.106672
vt 0.205180 0.106796
vt 0.239180 0.106672
vt 0.211544 0.106796
vt 0.273657 0.106205
vt 0.245718 0.106457
vt 0.308785 0.105856
vt 0.280545 0.105984
vt 0.315847 0.105856
vt 0.344088 0.105984
vt 0.350975 0.106205
vt 0.378914 0.106457
vt 0.385452 0.106673
vt 0.413088 0.106796
vt 0.648829 0.415587
vt 0.641883 0.441011
vt 0.660840 0.391608
vt 0.677342 0.369890
vt 0.697460 0.351471
vt 0.720241 0.337317
vt 0.744922 0.328076
vt 0.770965 0.324030
vt 0.797759 0.325198
vt 0.824324 0.331389
vt 0.849354 0.342227
vt 0.871579 0.357239
vt 0.890096 0.375992
vt 0.854555 0.403132
vt 0.842105 0.391472
vt 0.826361 0.382014
vt 0.792550 0.370854
vt 0.774270 0.369082
vt 0.757325 0.371040
vt 0.755175 0.371603
vt 0.739447 0.378204
vt 0.724383 0.388710
vt 0.700385 0.415013
vt 0.857550 0.417443
vt 0.840182 0.442909
vt 0.824473 0.447240
vt 0.809372 0.443836
vt 0.795928 0.419297
vt 0.801189 0.404737
vt 0.813296 0.393831
vt 0.691300 0.430974
vt 0.686165 0.447240
vt 0.361405 0.092446
vt 0.347164 0.039689
vt 0.360785 0.015294
vt 0.384605 0.001281
vt 0.436288 0.015630
vt 0.450302 0.040148
vt 0.450529 0.068388
vt 0.003694 0.470635
vt 0.037210 0.470848
vt 0.072542 0.471218
vt 0.136275 0.471218
vt 0.171607 0.470848
vt 0.205124 0.470635
vt 0.211601 0.470635
vt 0.245118 0.470848
vt 0.280450 0.471218
vt 0.344183 0.471218
vt 0.379515 0.470848
vt 0.413031 0.470635
vt 0.000473 0.078925
s 1
usemtl マテリアル
f 97/1/1 4/2/2 98/3/3
f 98/3/3 6/4/4 99/5/5
f 99/5/5 8/6/6 100/7/7
f 8/8/6 101/9/8 100/7/7
f 10/10/9 102/11/10 101/9/8
f 12/12/11 103/13/12 102/11/10
f 103/13/12 16/14/13 104/15/14
f 104/15/14 18/16/15 105/17/16
f 105/17/16 20/18/17 106/19/18
f 20/20/17 107/21/19 106/19/18
f 22/22/20 14/23/20 6/24/20
f 22/25/21 108/26/22 107/21/19
f 24/27/23 97/28/1 108/26/22
f 7/29/24 15/30/24 23/31/24
f 36/32/25 60/33/26 59/34/27
f 35/35/28 59/34/27 58/36/29
f 34/37/30 58/36/29 57/38/31
f 56/39/32 34/40/30 57/38/31
f 55/41/33 33/42/34 56/39/32
f 54/43/35 32/44/36 55/41/33
f 30/45/37 54/43/35 53/46/38
f 29/47/39 53/46/38 52/48/40
f 28/49/41 52/48/40 51/50/42
f 50/51/43 28/52/41 51/50/42
f 49/53/44 27/54/45 50/51/43
f 60/55/26 26/56/46 49/53/44
f 48/57/47 84/58/48 83/59/49
f 47/60/50 83/61/49 82/62/51
f 46/63/52 82/64/51 81/65/53
f 80/66/54 46/67/52 81/68/53
f 79/69/55 45/70/56 80/71/54
f 78/72/57 44/73/58 79/74/55
f 42/75/59 78/76/57 77/77/60
f 41/78/61 77/79/60 76/80/62
f 40/81/63 76/82/62 75/83/64
f 74/84/65 40/85/63 75/86/64
f 73/87/66 39/88/67 74/89/65
f 84/90/48 38/91/68 73/92/66
f 60/55/69 85/93/70 96/94/69
f 49/53/70 86/95/71 85/93/70
f 50/51/71 87/96/72 86/95/71
f 51/50/73 88/97/74 87/96/73
f 52/48/74 89/98/75 88/97/74
f 53/46/75 90/99/76 89/98/75
f 54/43/77 91/100/78 90/99/77
f 55/41/78 92/101/79 91/100/78
f 56/39/79 93/102/80 92/101/79
f 57/38/81 94/103/82 93/102/81
f 58/36/82 95/104/83 94/103/82
f 59/34/83 96/105/84 95/104/83
f 72/106/85 37/107/86 48/108/47
f 71/109/87 48/108/47 47/110/50
f 70/111/88 47/110/50 46/112/52
f 69/113/89 46/112/52 45/114/56
f 68/115/90 45/114/56 44/116/58
f 67/117/91 44/116/58 43/118/92
f 66/119/93 43/118/92 42/120/59
f 65/121/94 42/120/59 41/122/61
f 64/123/95 41/122/61 40/124/63
f 63/125/96 40/124/63 39/126/67
f 62/127/97 39/126/67 38/128/68
f 61/129/98 38/128/68 37/130/86
f 84/90/48 26/56/99 25/131/99
f 73/87/66 27/54/100 26/132/101
f 74/84/65 28/52/102 27/133/100
f 75/83/64 29/134/103 28/49/102
f 76/80/62 30/135/104 29/47/103
f 77/77/60 31/136/105 30/45/105
f 78/72/57 32/44/106 31/137/106
f 79/69/55 33/42/107 32/138/108
f 80/66/54 34/40/109 33/139/107
f 81/65/53 35/140/110 34/37/109
f 82/62/51 36/141/111 35/35/110
f 83/59/49 25/142/112 36/32/112
f 23/143/113 96/105/114 1/144/115
f 21/145/116 95/104/117 23/146/113
f 19/147/118 94/103/119 21/148/116
f 92/101/120 19/149/118 17/150/121
f 91/100/122 17/151/121 15/152/123
f 90/99/124 15/153/123 13/154/125
f 11/155/126 90/99/124 13/156/125
f 9/157/127 89/98/128 11/158/126
f 7/159/129 88/97/130 9/160/127
f 86/95/131 7/161/129 5/162/132
f 85/93/133 5/163/132 3/164/134
f 96/94/114 3/165/134 1/166/115
f 72/167/85 97/28/1 61/168/98
f 71/169/87 108/26/22 72/167/85
f 70/170/88 107/21/19 71/169/87
f 105/17/16 70/170/88 69/171/89
f 104/15/14 69/171/89 68/172/90
f 103/13/12 68/172/90 67/173/91
f 66/174/93 103/13/12 67/173/91
f 65/175/94 102/11/10 66/174/93
f 64/176/95 101/9/8 65/175/94
f 99/5/5 64/176/95 63/177/96
f 98/3/3 63/177/96 62/178/97
f 97/1/1 62/178/97 61/179/98
f 97/1/1 2/180/135 4/2/2
f 98/3/3 4/181/2 6/4/4
f 99/5/5 6/182/4 8/6/6
f 8/8/6 10/183/9 101/9/8
f 10/10/9 12/184/11 102/11/10
f 12/12/11 14/185/136 103/13/12
f 103/13/12 14/186/136 16/14/13
f 104/15/14 16/187/13 18/16/15
f 105/17/16 18/188/15 20/18/17
f 20/20/17 22/189/21 107/21/19
f 6/24/20 4/2/20 2/180/20
f 2/180/20 24/190/20 22/22/20
f 22/22/20 20/191/20 18/192/20
f 18/192/20 16/193/20 14/23/20
f 14/23/20 12/194/20 10/195/20
f 10/195/20 8/196/20 6/24/20
f 6/24/20 2/180/20 22/22/20
f 22/22/20 18/192/20 14/23/20
f 14/23/20 10/195/20 6/24/20
f 22/25/21 24/197/23 108/26/22
f 24/27/23 2/198/135 97/28/1
f 23/31/24 1/166/24 3/165/24
f 3/165/24 5/199/24 7/29/24
f 7/29/24 9/200/24 11/201/24
f 11/201/24 13/202/24 15/30/24
f 15/30/24 17/203/24 19/204/24
f 19/204/24 21/205/24 23/31/24
f 23/31/24 3/165/24 7/29/24
f 7/29/24 11/201/24 15/30/24
f 15/30/24 19/204/24 23/31/24
f 36/32/25 25/142/137 60/33/26
f 35/35/28 36/141/25 59/34/27
f 34/37/30 35/140/28 58/36/29
f 56/39/32 33/139/34 34/40/30
f 55/41/33 32/138/36 33/42/34
f 54/43/35 31/137/138 32/44/36
f 30/45/37 31/136/138 54/43/35
f 29/47/39 30/135/37 53/46/38
f 28/49/41 29/134/39 52/48/40
f 50/51/43 27/133/45 28/52/41
f 49/53/44 26/132/46 27/54/45
f 60/55/26 25/131/137 26/56/46
f 48/57/47 37/206/86 84/58/48
f 47/60/50 48/207/47 83/61/49
f 46/63/52 47/208/50 82/64/51
f 80/66/54 45/209/56 46/67/52
f 79/69/55 44/210/58 45/70/56
f 78/72/57 43/211/92 44/73/58
f 42/75/59 43/212/92 78/76/57
f 41/78/61 42/213/59 77/79/60
f 40/81/63 41/214/61 76/82/62
f 74/84/65 39/215/67 40/85/63
f 73/87/66 38/216/68 39/88/67
f 84/90/48 37/217/86 38/91/68
f 60/55/69 49/53/70 85/93/70
f 49/53/70 50/51/71 86/95/71
f 50/51/71 51/50/72 87/96/72
f 51/50/73 52/48/74 88/97/74
f 52/48/74 53/46/75 89/98/75
f 53/46/75 54/43/76 90/99/76
f 54/43/77 55/41/78 91/100/78
f 55/41/78 56/39/79 92/101/79
f 56/39/79 57/38/80 93/102/80
f 57/38/81 58/36/82 94/103/82
f 58/36/82 59/34/83 95/104/83
f 59/34/83 60/33/84 96/105/84
f 72/106/85 61/218/98 37/107/86
f 71/109/87 72/106/85 48/108/47
f 70/111/88 71/109/87 47/110/50
f 69/113/89 70/111/88 46/112/52
f 68/115/90 69/113/89 45/114/56
f 67/117/91 68/115/90 44/116/58
f 66/119/93 67/117/91 43/118/92
f 65/121/94 66/119/93 42/120/59
f 64/123/95 65/121/94 41/122/61
f 63/125/96 64/123/95 40/124/63
f 62/127/97 63/125/96 39/126/67
f 61/129/98 62/127/97 38/128/68
f 84/90/48 73/92/66 26/56/99
f 73/87/66 74/89/65 27/54/100
f 74/84/65 75/86/64 28/52/102
f 75/83/64 76/82/62 29/134/103
f 76/80/62 77/79/60 30/135/104
f 77/77/60 78/76/57 31/136/105
f 78/72/57 79/74/55 32/44/106
f 79/69/55 80/71/54 33/42/107
f 80/66/54 81/68/53 34/40/109
f 81/65/53 82/64/51 35/140/110
f 82/62/51 83/61/49 36/141/111
f 83/59/49 84/58/48 25/142/112
f 23/143/113 95/104/117 96/105/114
f 21/145/116 94/103/119 95/104/117
f 19/147/118 93/102/139 94/103/119
f 92/101/120 93/102/139 19/149/118
f 91/100/122 92/101/120 17/151/121
f 90/99/124 91/100/122 15/153/123
f 11/155/126 89/98/128 90/99/124
f 9/157/127 88/97/130 89/98/128
f 7/159/129 87/96/140 88/97/130
f 86/95/131 87/96/140 7/161/129
f 85/93/133 86/95/131 5/163/132
f 96/94/114 85/93/133 3/165/134
f 72/167/85 108/26/22 97/28/1
f 71/169/87 107/21/19 108/26/22
f 70/170/88 106/19/141 107/21/19
f 105/17/16 106/19/141 70/170/88
f 104/15/14 105/17/16 69/171/89
f 103/13/12 104/15/14 68/172/90
f 66/174/93 102/11/10 103/13/12
f 65/175/94 101/9/8 102/11/10
f 64/176/95 100/7/142 101/9/8
f 99/5/5 100/7/142 64/176/95
f 98/3/3 99/5/5 63/177/96
f 97/1/1 98/3/3 62/178/97
