# Blender 4.4.1
# www.blender.org
mtllib PlayerBullet.mtl
o Cube
v 0.297794 0.297794 -0.297794
v 0.297794 -0.297794 -0.297794
v 0.297794 0.297794 0.297794
v 0.297794 -0.297794 0.297794
v -0.297794 0.297794 -0.297794
v -0.297794 -0.297794 -0.297794
v -0.297794 0.297794 0.297794
v -0.297794 -0.297794 0.297794
v -0.341232 -0.341232 -0.176681
v -0.363051 -0.363051 -0.000000
v -0.341232 -0.341232 0.176681
v 0.176681 -0.341232 -0.341232
v 0.000000 -0.363051 -0.363051
v -0.176681 -0.341232 -0.341232
v 0.341232 0.176681 -0.341232
v 0.363051 0.000000 -0.363051
v 0.341232 -0.176681 -0.341232
v -0.341232 -0.176681 0.341232
v -0.363051 -0.000000 0.363051
v -0.341232 0.176681 0.341232
v 0.341232 0.176681 0.341232
v 0.363051 0.000000 0.363051
v 0.341232 -0.176681 0.341232
v -0.341232 0.176681 -0.341232
v -0.363051 -0.000000 -0.363051
v -0.341232 -0.176681 -0.341232
v 0.176681 0.341232 0.341232
v -0.000000 0.363051 0.363051
v -0.176681 0.341232 0.341232
v 0.341232 0.341232 -0.176681
v 0.363051 0.363051 0.000000
v 0.341232 0.341232 0.176681
v -0.176681 -0.341232 0.341232
v -0.000000 -0.363051 0.363051
v 0.176681 -0.341232 0.341232
v -0.341232 0.341232 0.176681
v -0.363051 0.363051 -0.000000
v -0.341232 0.341232 -0.176681
v -0.176681 0.341232 -0.341232
v 0.000000 0.363051 -0.363051
v 0.176681 0.341232 -0.341232
v 0.341232 -0.341232 0.176681
v 0.363051 -0.363051 0.000000
v 0.341232 -0.341232 -0.176681
v 0.188299 0.434178 -0.188299
v 0.000000 0.465648 -0.198415
v -0.188299 0.434178 -0.188299
v 0.198415 0.465648 0.000000
v -0.000000 0.500000 -0.000000
v -0.198415 0.465648 -0.000000
v 0.188299 0.434178 0.188299
v -0.000000 0.465648 0.198415
v -0.188299 0.434178 0.188299
v 0.188299 -0.188299 0.434178
v 0.198415 -0.000000 0.465648
v 0.188299 0.188299 0.434178
v -0.000000 -0.198415 0.465648
v 0.000000 0.000000 0.500000
v 0.000000 0.198415 0.465648
v -0.188299 -0.188299 0.434178
v -0.198415 0.000000 0.465648
v -0.188299 0.188299 0.434178
v -0.434178 -0.188299 0.188299
v -0.465648 -0.000000 0.198415
v -0.434178 0.188299 0.188299
v -0.465648 -0.198415 -0.000000
v -0.500000 0.000000 -0.000000
v -0.465648 0.198415 0.000000
v -0.434178 -0.188299 -0.188299
v -0.465648 0.000000 -0.198415
v -0.434178 0.188299 -0.188299
v -0.188299 -0.434178 -0.188299
v -0.000000 -0.465648 -0.198415
v 0.188299 -0.434178 -0.188299
v -0.198415 -0.465648 0.000000
v 0.000000 -0.500000 0.000000
v 0.198415 -0.465648 -0.000000
v -0.188299 -0.434178 0.188299
v 0.000000 -0.465648 0.198415
v 0.188299 -0.434178 0.188299
v 0.434178 -0.188299 -0.188299
v 0.465648 -0.000000 -0.198415
v 0.434178 0.188299 -0.188299
v 0.465648 -0.198415 0.000000
v 0.500000 0.000000 -0.000000
v 0.465648 0.198415 -0.000000
v 0.434178 -0.188299 0.188299
v 0.465648 0.000000 0.198415
v 0.434178 0.188299 0.188299
v -0.188299 -0.188299 -0.434178
v -0.198415 -0.000000 -0.465648
v -0.188299 0.188299 -0.434178
v 0.000000 -0.198415 -0.465648
v 0.000000 0.000000 -0.500000
v -0.000000 0.198415 -0.465648
v 0.188299 -0.188299 -0.434178
v 0.198415 0.000000 -0.465648
v 0.188299 0.188299 -0.434178
vn 0.5774 0.5774 -0.5774
vn 0.5774 -0.5774 -0.5774
vn 0.5774 0.5774 0.5774
vn 0.5774 -0.5774 0.5774
vn -0.5774 0.5774 -0.5774
vn -0.5774 -0.5774 -0.5774
vn -0.5774 0.5774 0.5774
vn -0.5774 -0.5774 0.5774
vn -0.6737 -0.6737 -0.3038
vn -0.7071 -0.7071 -0.0000
vn -0.6737 -0.6737 0.3038
vn 0.3038 -0.6737 -0.6737
vn -0.0000 -0.7071 -0.7071
vn -0.3038 -0.6737 -0.6737
vn 0.6737 0.3038 -0.6737
vn 0.7071 -0.0000 -0.7071
vn 0.6737 -0.3038 -0.6737
vn -0.6737 -0.3038 0.6737
vn -0.7071 -0.0000 0.7071
vn -0.6737 0.3038 0.6737
vn 0.6737 0.3038 0.6737
vn 0.7071 -0.0000 0.7071
vn 0.6737 -0.3038 0.6737
vn -0.6737 0.3038 -0.6737
vn -0.7071 -0.0000 -0.7071
vn -0.6737 -0.3038 -0.6737
vn 0.3038 0.6737 0.6737
vn -0.0000 0.7071 0.7071
vn -0.3038 0.6737 0.6737
vn 0.6737 0.6737 -0.3038
vn 0.7071 0.7071 -0.0000
vn 0.6737 0.6737 0.3038
vn -0.3038 -0.6737 0.6737
vn -0.0000 -0.7071 0.7071
vn 0.3038 -0.6737 0.6737
vn -0.6737 0.6737 0.3038
vn -0.7071 0.7071 -0.0000
vn -0.6737 0.6737 -0.3038
vn -0.3038 0.6737 -0.6737
vn -0.0000 0.7071 -0.7071
vn 0.3038 0.6737 -0.6737
vn 0.6737 -0.6737 0.3038
vn 0.7071 -0.7071 -0.0000
vn 0.6737 -0.6737 -0.3038
vn 0.3362 0.8797 -0.3362
vn -0.0000 0.9348 -0.3553
vn -0.3362 0.8797 -0.3362
vn 0.3553 0.9348 -0.0000
vn -0.0000 1.0000 -0.0000
vn -0.3553 0.9348 -0.0000
vn 0.3362 0.8797 0.3362
vn -0.0000 0.9348 0.3553
vn -0.3362 0.8797 0.3362
vn 0.3362 -0.3362 0.8797
vn 0.3553 -0.0000 0.9348
vn 0.3362 0.3362 0.8797
vn -0.0000 -0.3553 0.9348
vn -0.0000 -0.0000 1.0000
vn -0.0000 0.3553 0.9348
vn -0.3362 -0.3362 0.8797
vn -0.3553 -0.0000 0.9348
vn -0.3362 0.3362 0.8797
vn -0.8797 -0.3362 0.3362
vn -0.9348 -0.0000 0.3553
vn -0.8797 0.3362 0.3362
vn -0.9348 -0.3553 -0.0000
vn -1.0000 -0.0000 -0.0000
vn -0.9348 0.3553 -0.0000
vn -0.8797 -0.3362 -0.3362
vn -0.9348 -0.0000 -0.3553
vn -0.8797 0.3362 -0.3362
vn -0.3362 -0.8797 -0.3362
vn -0.0000 -0.9348 -0.3553
vn 0.3362 -0.8797 -0.3362
vn -0.3553 -0.9348 -0.0000
vn -0.0000 -1.0000 -0.0000
vn 0.3553 -0.9348 -0.0000
vn -0.3362 -0.8797 0.3362
vn -0.0000 -0.9348 0.3553
vn 0.3362 -0.8797 0.3362
vn 0.8797 -0.3362 -0.3362
vn 0.9348 -0.0000 -0.3553
vn 0.8797 0.3362 -0.3362
vn 0.9348 -0.3553 -0.0000
vn 1.0000 -0.0000 -0.0000
vn 0.9348 0.3553 -0.0000
vn 0.8797 -0.3362 0.3362
vn 0.9348 -0.0000 0.3553
vn 0.8797 0.3362 0.3362
vn -0.3362 -0.3362 -0.8797
vn -0.3553 -0.0000 -0.9348
vn -0.3362 0.3362 -0.8797
vn -0.0000 -0.3553 -0.9348
vn -0.0000 -0.0000 -1.0000
vn -0.0000 0.3553 -0.9348
vn 0.3362 -0.3362 -0.8797
vn 0.3553 -0.0000 -0.9348
vn 0.3362 0.3362 -0.8797
vt 0.418005 0.785684
vt 0.461053 0.899887
vt 0.385894 0.846510
vt 0.160957 0.103131
vt 0.038947 0.100113
vt 0.117316 0.031622
vt 0.339043 0.896869
vt 0.081995 0.214316
vt 0.000100 0.196671
vt 0.379446 0.728064
vt 0.362313 0.766072
vt 0.425286 0.720296
vt 0.499900 0.803329
vt 0.220296 0.074714
vt 0.207651 0.000100
vt 0.228064 0.120554
vt 0.197823 0.149253
vt 0.114106 0.153490
vt 0.137687 0.233928
vt 0.120554 0.271936
vt 0.074714 0.279704
vt 0.000100 0.292349
vt 0.382684 0.968378
vt 0.279704 0.925286
vt 0.271936 0.879446
vt 0.302177 0.850747
vt 0.334608 0.810087
vt 0.103131 0.839043
vt 0.100113 0.961053
vt 0.031622 0.882684
vt 0.214316 0.918005
vt 0.153490 0.885894
vt 0.100113 0.461053
vt 0.214316 0.418005
vt 0.196671 0.499900
vt 0.103131 0.339043
vt 0.153490 0.385894
vt 0.120554 0.771936
vt 0.074714 0.779704
vt 0.149253 0.802177
vt 0.233928 0.862313
vt 0.189913 0.834608
vt 0.196671 0.999900
vt 0.031622 0.382684
vt 0.149253 0.302177
vt 0.189913 0.334608
vt 0.233928 0.362313
vt 0.271936 0.379446
vt 0.279704 0.425286
vt 0.292349 0.499900
vt 0.000100 0.792349
vt 0.261893 0.320183
vt 0.250000 0.250000
vt 0.292229 0.279991
vt 0.179817 0.261893
vt 0.220009 0.292229
vt 0.320183 0.238107
vt 0.238107 0.179817
vt 0.279991 0.207771
vt 0.302177 0.350747
vt 0.207771 0.220010
vt 0.266072 0.137688
vt 0.310087 0.165392
vt 0.350747 0.197823
vt 0.379446 0.228064
vt 0.362313 0.266072
vt 0.334608 0.310087
vt 0.418005 0.285684
vt 0.461053 0.399887
vt 0.385894 0.346510
vt 0.160957 0.603132
vt 0.038947 0.600113
vt 0.117316 0.531622
vt 0.339043 0.396869
vt 0.081995 0.714316
vt 0.000100 0.696672
vt 0.425286 0.220296
vt 0.499900 0.303329
vt 0.220296 0.574714
vt 0.207651 0.500100
vt 0.228064 0.620555
vt 0.197823 0.649253
vt 0.114106 0.653490
vt 0.137687 0.733928
vt 0.382684 0.468378
vt 0.238107 0.679817
vt 0.250000 0.750000
vt 0.207771 0.720010
vt 0.320183 0.738107
vt 0.279990 0.707771
vt 0.179817 0.761893
vt 0.261893 0.820183
vt 0.220009 0.792229
vt 0.266072 0.637688
vt 0.350747 0.697823
vt 0.310087 0.665392
vt 0.292229 0.779991
vt 0.165392 0.689913
vt 0.396869 0.160957
vt 0.399887 0.038947
vt 0.468378 0.117316
vt 0.285684 0.081995
vt 0.346510 0.114106
vt 0.399887 0.538947
vt 0.285684 0.581995
vt 0.303329 0.500100
vt 0.396868 0.660957
vt 0.346510 0.614106
vt 0.303329 0.000100
vt 0.468378 0.617316
vt 0.499900 0.207651
vt 0.499900 0.707651
vt 0.165392 0.189913
vt 0.292349 0.999900
s 1
usemtl Material
f 45/1/45 49/2/49 48/3/48
f 47/4/47 49/5/49 46/6/46
f 49/2/49 51/7/51 48/3/48
f 49/5/49 53/8/53 52/9/52
f 1/10/1 45/1/45 30/11/30
f 41/12/41 46/13/46 45/1/45
f 39/14/39 46/6/46 40/15/40
f 5/16/5 47/4/47 39/14/39
f 38/17/38 50/18/50 47/4/47
f 50/18/50 36/19/36 53/8/53
f 53/8/53 7/20/7 29/21/29
f 52/9/52 29/21/29 28/22/28
f 52/23/52 27/24/27 51/7/51
f 51/7/51 3/25/3 32/26/32
f 48/3/48 32/26/32 31/27/31
f 30/11/30 48/3/48 31/27/31
f 54/28/54 58/29/58 57/30/57
f 56/31/56 58/29/58 55/32/55
f 58/33/58 60/34/60 57/35/57
f 58/33/58 62/36/62 61/37/61
f 4/38/4 54/28/54 35/39/35
f 23/40/23 55/32/55 54/28/54
f 21/41/21 55/32/55 22/42/22
f 3/25/3 56/31/56 21/41/21
f 27/24/27 59/43/59 56/31/56
f 59/44/59 29/21/29 62/36/62
f 62/36/62 7/20/7 20/45/20
f 61/37/61 20/45/20 19/46/19
f 61/37/61 18/47/18 60/34/60
f 60/34/60 8/48/8 33/49/33
f 57/35/57 33/49/33 34/50/34
f 35/39/35 57/30/57 34/51/34
f 63/52/63 67/53/67 66/54/66
f 65/55/65 67/53/67 64/56/64
f 67/53/67 69/57/69 66/54/66
f 67/53/67 71/58/71 70/59/70
f 8/48/8 63/52/63 11/60/11
f 18/47/18 64/56/64 63/52/63
f 20/45/20 64/56/64 19/46/19
f 7/20/7 65/55/65 20/45/20
f 36/19/36 68/61/68 65/55/65
f 68/61/68 38/17/38 71/58/71
f 71/58/71 5/16/5 24/62/24
f 70/59/70 24/62/24 25/63/25
f 70/59/70 26/64/26 69/57/69
f 69/57/69 6/65/6 9/66/9
f 66/54/66 9/66/9 10/67/10
f 11/60/11 66/54/66 10/67/10
f 72/68/72 76/69/76 75/70/75
f 74/71/74 76/72/76 73/73/73
f 76/69/76 78/74/78 75/70/75
f 76/72/76 80/75/80 79/76/79
f 6/65/6 72/68/72 9/66/9
f 14/77/14 73/78/73 72/68/72
f 12/79/12 73/73/73 13/80/13
f 2/81/2 74/71/74 12/79/12
f 44/82/44 77/83/77 74/71/74
f 77/83/77 42/84/42 80/75/80
f 80/75/80 4/38/4 35/39/35
f 79/76/79 35/39/35 34/51/34
f 79/85/79 33/49/33 78/74/78
f 78/74/78 8/48/8 11/60/11
f 75/70/75 11/60/11 10/67/10
f 9/66/9 75/70/75 10/67/10
f 81/86/81 85/87/85 84/88/84
f 83/89/83 85/87/85 82/90/82
f 85/87/85 87/91/87 84/88/84
f 85/87/85 89/92/89 88/93/88
f 2/81/2 81/86/81 44/82/44
f 17/94/17 82/90/82 81/86/81
f 15/95/15 82/90/82 16/96/16
f 1/10/1 83/89/83 15/95/15
f 30/11/30 86/97/86 83/89/83
f 86/97/86 32/26/32 89/92/89
f 89/92/89 3/25/3 21/41/21
f 88/93/88 21/41/21 22/42/22
f 88/93/88 23/40/23 87/91/87
f 87/91/87 4/38/4 42/84/42
f 84/88/84 42/84/42 43/98/43
f 44/82/44 84/88/84 43/98/43
f 90/99/90 94/100/94 93/101/93
f 92/102/92 94/100/94 91/103/91
f 94/104/94 96/105/96 93/106/93
f 94/104/94 98/107/98 97/108/97
f 6/65/6 90/99/90 14/77/14
f 26/64/26 91/103/91 90/99/90
f 24/62/24 91/103/91 25/63/25
f 5/16/5 92/102/92 24/62/24
f 39/14/39 95/109/95 92/102/92
f 95/110/95 41/12/41 98/107/98
f 98/107/98 1/10/1 15/95/15
f 97/108/97 15/95/15 16/96/16
f 97/108/97 17/94/17 96/105/96
f 96/105/96 2/81/2 12/79/12
f 93/106/93 12/79/12 13/80/13
f 14/77/14 93/101/93 13/111/13
f 45/1/45 46/13/46 49/2/49
f 47/4/47 50/18/50 49/5/49
f 49/2/49 52/23/52 51/7/51
f 49/5/49 50/18/50 53/8/53
f 1/10/1 41/12/41 45/1/45
f 41/12/41 40/112/40 46/13/46
f 39/14/39 47/4/47 46/6/46
f 5/16/5 38/17/38 47/4/47
f 38/17/38 37/113/37 50/18/50
f 50/18/50 37/113/37 36/19/36
f 53/8/53 36/19/36 7/20/7
f 52/9/52 53/8/53 29/21/29
f 52/23/52 28/114/28 27/24/27
f 51/7/51 27/24/27 3/25/3
f 48/3/48 51/7/51 32/26/32
f 30/11/30 45/1/45 48/3/48
f 54/28/54 55/32/55 58/29/58
f 56/31/56 59/43/59 58/29/58
f 58/33/58 61/37/61 60/34/60
f 58/33/58 59/44/59 62/36/62
f 4/38/4 23/40/23 54/28/54
f 23/40/23 22/42/22 55/32/55
f 21/41/21 56/31/56 55/32/55
f 3/25/3 27/24/27 56/31/56
f 27/24/27 28/114/28 59/43/59
f 59/44/59 28/22/28 29/21/29
f 62/36/62 29/21/29 7/20/7
f 61/37/61 62/36/62 20/45/20
f 61/37/61 19/46/19 18/47/18
f 60/34/60 18/47/18 8/48/8
f 57/35/57 60/34/60 33/49/33
f 35/39/35 54/28/54 57/30/57
f 63/52/63 64/56/64 67/53/67
f 65/55/65 68/61/68 67/53/67
f 67/53/67 70/59/70 69/57/69
f 67/53/67 68/61/68 71/58/71
f 8/48/8 18/47/18 63/52/63
f 18/47/18 19/46/19 64/56/64
f 20/45/20 65/55/65 64/56/64
f 7/20/7 36/19/36 65/55/65
f 36/19/36 37/113/37 68/61/68
f 68/61/68 37/113/37 38/17/38
f 71/58/71 38/17/38 5/16/5
f 70/59/70 71/58/71 24/62/24
f 70/59/70 25/63/25 26/64/26
f 69/57/69 26/64/26 6/65/6
f 66/54/66 69/57/69 9/66/9
f 11/60/11 63/52/63 66/54/66
f 72/68/72 73/78/73 76/69/76
f 74/71/74 77/83/77 76/72/76
f 76/69/76 79/85/79 78/74/78
f 76/72/76 77/83/77 80/75/80
f 6/65/6 14/77/14 72/68/72
f 14/77/14 13/111/13 73/78/73
f 12/79/12 74/71/74 73/73/73
f 2/81/2 44/82/44 74/71/74
f 44/82/44 43/98/43 77/83/77
f 77/83/77 43/98/43 42/84/42
f 80/75/80 42/84/42 4/38/4
f 79/76/79 80/75/80 35/39/35
f 79/85/79 34/50/34 33/49/33
f 78/74/78 33/49/33 8/48/8
f 75/70/75 78/74/78 11/60/11
f 9/66/9 72/68/72 75/70/75
f 81/86/81 82/90/82 85/87/85
f 83/89/83 86/97/86 85/87/85
f 85/87/85 88/93/88 87/91/87
f 85/87/85 86/97/86 89/92/89
f 2/81/2 17/94/17 81/86/81
f 17/94/17 16/96/16 82/90/82
f 15/95/15 83/89/83 82/90/82
f 1/10/1 30/11/30 83/89/83
f 30/11/30 31/27/31 86/97/86
f 86/97/86 31/27/31 32/26/32
f 89/92/89 32/26/32 3/25/3
f 88/93/88 89/92/89 21/41/21
f 88/93/88 22/42/22 23/40/23
f 87/91/87 23/40/23 4/38/4
f 84/88/84 87/91/87 42/84/42
f 44/82/44 81/86/81 84/88/84
f 90/99/90 91/103/91 94/100/94
f 92/102/92 95/109/95 94/100/94
f 94/104/94 97/108/97 96/105/96
f 94/104/94 95/110/95 98/107/98
f 6/65/6 26/64/26 90/99/90
f 26/64/26 25/63/25 91/103/91
f 24/62/24 92/102/92 91/103/91
f 5/16/5 39/14/39 92/102/92
f 39/14/39 40/15/40 95/109/95
f 95/110/95 40/112/40 41/12/41
f 98/107/98 41/12/41 1/10/1
f 97/108/97 98/107/98 15/95/15
f 97/108/97 16/96/16 17/94/17
f 96/105/96 17/94/17 2/81/2
f 93/106/93 96/105/96 12/79/12
f 14/77/14 90/99/90 93/101/93
